<?xml version="1.0" encoding="utf-8"?>
<!-- Generator: Adobe Illustrator 15.0.0, SVG Export Plug-In . SVG Version: 6.00 Build 0)  -->
<!DOCTYPE svg PUBLIC "-//W3C//DTD SVG 1.1//EN" "http://www.w3.org/Graphics/SVG/1.1/DTD/svg11.dtd">
<svg version="1.1" id="Layer_1" xmlns="http://www.w3.org/2000/svg" xmlns:xlink="http://www.w3.org/1999/xlink" x="0px" y="0px"
	 width="71.158px" height="105.523px" viewBox="0 0 71.158 105.523" enable-background="new 0 0 71.158 105.523"
	 xml:space="preserve">
<g>
	<g>
		<g>
			
				<ellipse transform="matrix(0.9604 -0.2787 0.2787 0.9604 -9.4711 10.0186)" fill="#E58890" cx="30.495" cy="38.315" rx="7.36" ry="8.116"/>
			<path fill="#5B0D0D" d="M30.878,47.127c-3.691,0-7.052-2.694-8.172-6.552c-1.361-4.695,1.022-9.529,5.316-10.776
				c0.679-0.197,1.381-0.297,2.087-0.297c3.692,0,7.054,2.694,8.174,6.552c0.657,2.261,0.474,4.623-0.516,6.65
				c-1.002,2.052-2.706,3.517-4.8,4.125C32.288,47.026,31.585,47.127,30.878,47.127z M30.109,31.002
				c-0.564,0-1.126,0.08-1.669,0.238c-3.499,1.017-5.425,5.017-4.293,8.917c0.935,3.22,3.702,5.47,6.73,5.47
				c0.564,0,1.127-0.081,1.672-0.239c1.682-0.488,3.056-1.675,3.869-3.342c0.826-1.692,0.977-3.672,0.424-5.574
				C35.907,33.251,33.139,31.002,30.109,31.002z"/>
		</g>
		<g>
			<path fill="#D8414C" d="M42.44,56.009c-0.112,4.716-3.502,4.737-7.594,4.64c-4.091-0.098-7.317-3.999-7.205-8.715
				c0.112-4.715,2.688-6.747,6.779-6.65C38.511,45.382,42.554,51.294,42.44,56.009z"/>
			<path fill="#5B0D0D" d="M36.307,61.421c-0.479,0-0.973-0.01-1.478-0.022c-4.499-0.108-8.06-4.362-7.938-9.483
				c0.113-4.762,2.689-7.385,7.252-7.385l0.295,0.003c2.146,0.051,4.397,1.488,6.176,3.941c1.671,2.305,2.634,5.128,2.576,7.552
				C43.071,61.004,39.575,61.421,36.307,61.421z M34.144,46.031c-3.775,0-5.657,1.937-5.752,5.921
				c-0.103,4.294,2.802,7.859,6.473,7.947c0.493,0.012,0.976,0.022,1.442,0.022c3.585,0,5.305-0.588,5.384-3.93
				c0.051-2.107-0.806-4.587-2.291-6.636c-1.479-2.041-3.347-3.282-4.996-3.321L34.144,46.031z"/>
		</g>
		<g>
			<path fill="#E58890" d="M54.701,62.203c-0.715-1.058-2.155-1.334-3.215-0.617l-1.962,1.331c-0.043-0.048-0.074-0.103-0.119-0.15
				c0,0-3.622-3.741-4.045-3.915c-0.01-0.004-0.021-0.009-0.03-0.013c-0.102-0.04-0.203-0.071-0.31-0.096
				c-0.068-0.019-0.135-0.033-0.204-0.044c-0.034-0.005-0.068-0.018-0.104-0.022l-4.637-0.514c-1.327-0.147-2.521,0.809-2.669,2.136
				c-0.146,1.327,0.81,2.521,2.137,2.668l4.035,0.447c0,0,3.134,3.71,3.366,4.05c0.716,1.058,2.156,1.335,3.216,0.616l3.923-2.659
				C55.143,64.703,55.421,63.263,54.701,62.203z"/>
			<path fill="#5B0D0D" d="M48.863,69.23L48.863,69.23c-1.02,0-1.969-0.504-2.539-1.346c-0.167-0.238-1.93-2.342-3.125-3.759
				l-3.738-0.414c-1.734-0.192-2.991-1.76-2.799-3.496c0.191-1.722,1.737-2.99,3.497-2.799l4.796,0.544
				c0.076,0.012,0.168,0.032,0.262,0.058c0.118,0.027,0.252,0.069,0.386,0.121c0.192,0.08,0.588,0.242,4.038,3.792l1.425-0.966
				c0.511-0.346,1.105-0.528,1.72-0.528c1.02,0,1.968,0.503,2.537,1.346c0.46,0.676,0.628,1.492,0.474,2.297
				s-0.612,1.502-1.291,1.962l-3.923,2.659C50.072,69.047,49.478,69.23,48.863,69.23z M39.807,58.897
				c-0.849,0-1.56,0.638-1.654,1.484c-0.101,0.913,0.561,1.738,1.475,1.839l4.332,0.48l0.193,0.229
				c0.527,0.625,3.17,3.758,3.412,4.111c0.47,0.693,1.482,0.889,2.176,0.419l3.923-2.659c0.347-0.236,0.581-0.592,0.66-1.003
				c0.078-0.411-0.008-0.827-0.242-1.173c-0.466-0.689-1.48-0.887-2.174-0.417l-2.507,1.7l-0.534-0.615
				c-1.628-1.686-3.517-3.558-3.858-3.78c-0.02-0.001-0.089-0.022-0.161-0.04c-0.065-0.017-0.106-0.026-0.15-0.033l-0.113-0.024
				l-4.59-0.506C39.931,58.901,39.868,58.897,39.807,58.897z"/>
		</g>
		<g>
			<path fill="#E58890" d="M44.271,47.108c-0.65-1.085-2.059-1.437-3.144-0.786l-2.926,1.755l-3.418-0.855
				c-1.229-0.307-2.473,0.439-2.779,1.667c-0.309,1.228,0.439,2.472,1.667,2.78l4.23,1.058c0.018,0.005,0.035,0.004,0.054,0.008
				c0.583,0.162,1.229,0.098,1.789-0.239l3.74-2.244C44.57,49.601,44.922,48.194,44.271,47.108z"/>
			<path fill="#5B0D0D" d="M38.576,53.569L38.576,53.569c-0.256,0-0.511-0.032-0.76-0.096l-0.115-0.024l-4.212-1.053
				c-0.789-0.198-1.453-0.69-1.871-1.386c-0.418-0.697-0.54-1.516-0.342-2.304c0.339-1.356,1.551-2.303,2.948-2.303
				c0.249,0,0.498,0.031,0.74,0.091l3.117,0.78l2.659-1.595c0.473-0.284,1.013-0.434,1.562-0.434c1.063,0,2.063,0.566,2.61,1.477
				c0.418,0.697,0.539,1.515,0.343,2.303c-0.197,0.788-0.689,1.453-1.387,1.87l-3.74,2.244
				C39.662,53.42,39.124,53.569,38.576,53.569z M34.225,47.903c-0.707,0-1.321,0.48-1.493,1.167c-0.101,0.4-0.039,0.814,0.173,1.167
				s0.549,0.603,0.949,0.703l4.229,1.058c0.21,0.051,0.352,0.07,0.493,0.07l0,0c0.276,0,0.546-0.075,0.781-0.216l3.741-2.244
				c0.354-0.212,0.603-0.548,0.703-0.948c0.1-0.399,0.038-0.814-0.175-1.167c-0.422-0.706-1.4-0.958-2.114-0.528L38.32,48.88
				l-3.719-0.931C34.478,47.918,34.351,47.903,34.225,47.903z"/>
		</g>
	</g>
	<g>
		<path fill="#1C5F9F" d="M62.646,87.363c0,0-11.631-21.383-13.698-23.396S36.756,60.955,32.006,53.58s-5.625-29.375-9.041-33.991
			c-1.88-3.21-5.734-9.795-5.734-9.795c-0.05-0.08-0.108-0.149-0.169-0.218c0.026-0.18,0.006-0.308-0.071-0.355L1.837,0.02
			C1.62-0.112,1.053,0.428,0.568,1.225C0.084,2.022-0.133,2.774,0.084,2.906l14.279,8.67c0.001,0.001,0.002,0.003,0.003,0.005
			c-0.007,0.071-0.019,0.141-0.019,0.214v75.7c-4.215,0.792-7.407,4.486-7.407,8.932c0,5.023,4.072,9.096,9.095,9.096
			s9.095-4.072,9.095-9.096c0-4.444-3.191-8.139-7.405-8.932V83.34l35.27-5.063l5.993,9.603c-3.506,1.262-6.019,4.607-6.019,8.549
			c0,5.023,4.072,9.096,9.095,9.096s9.095-4.072,9.095-9.096C71.158,91.602,67.396,87.665,62.646,87.363z M19.446,96.428
			c0,1.885-1.527,3.411-3.411,3.411s-3.41-1.526-3.41-3.411c0-1.883,1.526-3.41,3.41-3.41S19.446,94.545,19.446,96.428z
			 M17.725,79.933v-62.97l1.322,6.925c0,0,1.804,42.518,11.33,46.095c9.526,3.578,19.264,2.92,19.264,2.92l1.39,2.228L17.725,79.933
			z M62.063,99.839c-1.884,0-3.41-1.526-3.41-3.411c0-1.883,1.526-3.41,3.41-3.41s3.41,1.527,3.41,3.41
			C65.474,98.312,63.947,99.839,62.063,99.839z"/>
	</g>
</g>
</svg>
