<?xml version="1.0" encoding="utf-8"?>
<!-- Generator: Adobe Illustrator 15.0.0, SVG Export Plug-In . SVG Version: 6.00 Build 0)  -->
<!DOCTYPE svg PUBLIC "-//W3C//DTD SVG 1.1//EN" "http://www.w3.org/Graphics/SVG/1.1/DTD/svg11.dtd">
<svg version="1.1" id="Layer_1" xmlns="http://www.w3.org/2000/svg" xmlns:xlink="http://www.w3.org/1999/xlink" x="0px" y="0px"
	 width="54.824px" height="126.149px" viewBox="0 0 54.824 126.149" enable-background="new 0 0 54.824 126.149"
	 xml:space="preserve">
<g>
	<g>
		<path fill="#E58890" d="M5.578,106.191l-1.071,10.97c-0.54,3.523,1.393,6.905,4.319,7.556c2.924,0.651,5.734-1.676,6.275-5.199
			l9.928-47.12L5.578,106.191z"/>
		<path fill="#5B0D0D" d="M9.811,125.576L9.811,125.576c-0.383,0-0.77-0.043-1.148-0.127c-3.297-0.733-5.494-4.502-4.897-8.401
			l1.081-11.091l0.081-0.14l21.809-37.893l-10.902,51.747C15.313,123.076,12.776,125.576,9.811,125.576z M6.309,106.426
			l-1.055,10.809c-0.485,3.175,1.192,6.186,3.735,6.75c0.272,0.061,0.549,0.092,0.823,0.092c2.22,0,4.132-1.965,4.548-4.673
			l8.96-42.534L6.309,106.426z"/>
	</g>
	<g>
		<path fill="#E58890" d="M33.604,106.191l1.07,10.97c0.54,3.523-1.393,6.905-4.318,7.556c-2.925,0.651-5.735-1.676-6.276-5.199
			l-9.928-47.12L33.604,106.191z"/>
		<path fill="#5B0D0D" d="M29.369,125.576c-2.966,0-5.502-2.5-6.031-5.945L12.443,67.926l21.891,38.031l1.086,11.131
			c0.593,3.859-1.604,7.628-4.902,8.361C30.139,125.533,29.753,125.576,29.369,125.576z M15.86,76.869l8.954,42.494
			c0.423,2.748,2.336,4.713,4.556,4.713c0.274,0,0.551-0.031,0.823-0.092c2.543-0.565,4.221-3.575,3.74-6.71l-1.06-10.849
			L15.86,76.869z"/>
	</g>
	<g>
		<path fill="#E58890" d="M46.471,52.456c2.095,1.476,2.797,4.715,1.572,7.234c-1.226,2.521-3.916,3.367-6.008,1.892
			c-2.094-1.474-2.797-4.713-1.572-7.233C41.688,51.827,44.378,50.98,46.471,52.456z"/>
		<path fill="#5B0D0D" d="M44.25,63.058c-0.932,0-1.848-0.298-2.647-0.862c-2.378-1.674-3.191-5.341-1.813-8.175
			c0.91-1.875,2.621-3.04,4.467-3.04c0.932,0,1.847,0.299,2.646,0.862c2.379,1.675,3.191,5.343,1.814,8.176
			C47.807,61.893,46.094,63.058,44.25,63.058z M44.256,52.48c-1.266,0-2.461,0.842-3.118,2.195
			c-1.069,2.201-0.474,5.024,1.329,6.293c0.547,0.386,1.162,0.589,1.783,0.589c1.266,0,2.46-0.841,3.117-2.195
			c1.07-2.2,0.475-5.023-1.328-6.293C45.492,52.684,44.876,52.48,44.256,52.48z"/>
	</g>
	<g>
		<polygon fill="#D8414C" points="33.973,43.649 29.535,52.775 42.035,61.582 46.471,52.456 		"/>
		<path fill="#5B0D0D" d="M42.324,62.703l-13.742-9.682l5.102-10.493l13.74,9.682L42.324,62.703z M30.489,52.529l11.257,7.932
			l3.771-7.759l-11.256-7.932L30.489,52.529z"/>
	</g>
	<g>
		<polygon fill="#AC1E23" points="54.053,58.027 51.092,58.027 41.367,58.027 41.367,61.62 51.092,61.62 51.092,125.399 
			54.074,125.399 54.074,58.027 		"/>
		<path fill="#5B0D0D" d="M54.824,126.149h-4.482V62.37h-9.725v-5.093h14.186l0.021,0.75V126.149z M51.842,124.649h1.482V58.777
			H42.117v2.093h9.725V124.649z"/>
	</g>
	<g>
		<polygon fill="#AC1E23" points="9.317,68.813 32.396,68.813 37.508,110.713 0.916,110.713 		"/>
		<path fill="#5B0D0D" d="M38.355,111.463H0l8.703-43.399h24.358L38.355,111.463z M1.831,109.963H36.66l-4.928-40.399h-21.8
			L1.831,109.963z"/>
	</g>
	<g>
		<path fill="#D8414C" d="M32.727,31.768c0,0,12.084,15.946,3.647,20.958c-3.081,2.292-5.405,7.492-3.978,16.088
			c-3.978,0-23.079,0-23.079,0s-4.391-32.191,8.35-40.039C25.725,26.179,32.727,31.768,32.727,31.768z"/>
		<path fill="#5B0D0D" d="M33.281,69.563H8.663l-0.088-0.648c-0.182-1.334-4.307-32.768,8.7-40.779l0.164-0.075
			c1.491-0.48,3.05-0.724,4.633-0.724c6.236,0,10.927,3.688,11.125,3.845l0.129,0.133c0.327,0.431,7.98,10.631,6.632,17.527
			c-0.386,1.974-1.462,3.497-3.199,4.528c-1.604,1.199-5.306,5.182-3.621,15.32L33.281,69.563z M9.981,68.063h21.54
			c-1.46-10.32,2.566-14.572,4.404-15.939c1.438-0.858,2.253-2.012,2.559-3.569c1.163-5.944-5.591-15.299-6.297-16.255
			c-0.596-0.447-4.816-3.463-10.117-3.463c-1.396,0-2.771,0.21-4.087,0.624C6.864,36.439,9.459,63.514,9.981,68.063z"/>
	</g>
	<g>
		<g>
			<ellipse fill="#E58890" cx="6.995" cy="65.522" rx="4.427" ry="5.33"/>
			<path fill="#5B0D0D" d="M6.995,71.603c-2.854,0-5.177-2.728-5.177-6.08c0-3.352,2.322-6.079,5.177-6.079s5.177,2.728,5.177,6.079
				C12.171,68.875,9.849,71.603,6.995,71.603z M6.995,60.943c-2.027,0-3.677,2.054-3.677,4.579s1.649,4.58,3.677,4.58
				s3.677-2.055,3.677-4.58S9.022,60.943,6.995,60.943z"/>
		</g>
		<g>
			<g>
				<path fill="#D8414C" d="M20.679,39.139l-6.21-6.391L4.258,44.025c-0.874,1.123-1.655,2.438-1.655,4.104v17.436h8.784V50.327
					L20.679,39.139z"/>
			</g>
			<g>
				<path fill="#5B0D0D" d="M19.778,39.139l-9.085,10.938v14.795H3.296V48.13c0-1.532,0.763-2.72,1.496-3.663l9.752-11.798
					l-0.077-2.095L3.711,43.6c-0.839,1.077-1.801,2.567-1.801,4.53v18.129h10.17V50.577l9.501-11.438H19.778z"/>
			</g>
		</g>
	</g>
	<g>
		<path fill="#E58890" d="M39.302,24.309c0,5.038-3.392,9.121-7.577,9.121l0,0c-4.184,0-7.577-4.083-7.577-9.121v-7.107
			c0-5.038,3.393-9.121,7.577-9.121l0,0c4.186,0,7.577,4.083,7.577,9.121V24.309z"/>
		<path fill="#5B0D0D" d="M31.725,34.18c-4.591,0-8.327-4.428-8.327-9.871v-7.107c0-5.443,3.735-9.871,8.327-9.871
			c4.592,0,8.327,4.428,8.327,9.871v7.107C40.052,29.752,36.316,34.18,31.725,34.18z M31.725,8.83c-3.764,0-6.827,3.755-6.827,8.371
			v7.107c0,4.616,3.062,8.371,6.827,8.371c3.765,0,6.827-3.755,6.827-8.371v-7.107C38.552,12.585,35.489,8.83,31.725,8.83z"/>
	</g>
	<g>
		<path fill="#FFFFFF" d="M27.345,8.562c0.866-2.198,0.745-4.659-0.512-6.275c-1.741-2.239-4.968-2.004-7.212,0.521
			c-2.241,2.526-2.647,6.39-0.907,8.628c1.286,1.65,3.379,1.947,5.289,0.978c-2.831,5.481,0.145,11.905,0.145,11.905
			s4.106,2.059,5.387-7.582c0,0,8.662,0.2,9.822-2.594C40.436,11.545,34.324,3.366,27.345,8.562z"/>
		<path fill="#5B0D0D" d="M25.065,25.254c-0.707,0-1.2-0.237-1.253-0.264l-0.234-0.118l-0.11-0.237
			c-0.116-0.251-2.582-5.69-0.796-10.992c-1.774,0.303-3.458-0.346-4.549-1.745c-1.949-2.506-1.528-6.807,0.938-9.587
			C20.365,0.842,22.065,0,23.725,0c1.471,0,2.785,0.648,3.701,1.827c1.042,1.339,1.433,3.192,1.135,5.113
			c1.123-0.546,2.273-0.821,3.434-0.821c3.197,0,5.744,2.108,7.062,4.081c1.062,1.591,1.434,3.173,0.994,4.231
			c-1.109,2.67-7.063,3.037-9.864,3.058C29.199,23.886,26.874,25.254,25.065,25.254z M24.707,23.716
			c0.096,0.021,0.218,0.038,0.358,0.038c0.836,0,2.873-0.693,3.727-7.115l0.089-0.666l1.031,0.018c3.915,0,8.14-0.66,8.752-2.135
			c0.189-0.457,0.004-1.535-0.855-2.822c-1.102-1.65-3.208-3.414-5.814-3.414c-1.41,0-2.824,0.52-4.201,1.545l-2.059,1.533
			l-1.064,2.061C22.365,17.221,24.197,22.445,24.707,23.716z M23.725,1.5c-1.231,0-2.522,0.658-3.543,1.807
			c-2.009,2.266-2.402,5.706-0.875,7.67c1.012,1.297,2.738,1.592,4.358,0.769l2.027-1.029l0.957-2.428
			c0.797-2.023,0.637-4.198-0.407-5.541C25.606,1.932,24.736,1.5,23.725,1.5z"/>
	</g>
</g>
</svg>
