<?xml version="1.0" encoding="utf-8"?>
<!-- Generator: Adobe Illustrator 15.0.0, SVG Export Plug-In . SVG Version: 6.00 Build 0)  -->
<!DOCTYPE svg PUBLIC "-//W3C//DTD SVG 1.1//EN" "http://www.w3.org/Graphics/SVG/1.1/DTD/svg11.dtd">
<svg version="1.1" id="Layer_1" xmlns="http://www.w3.org/2000/svg" xmlns:xlink="http://www.w3.org/1999/xlink" x="0px" y="0px"
	 width="41.3px" height="46.516px" viewBox="0 0 41.3 46.516" enable-background="new 0 0 41.3 46.516" xml:space="preserve">
<g>
	<g>
		<path fill="#1B3E6F" d="M6.719,44.994c0,0.84-0.681,1.522-1.521,1.522h-1.98c-0.841,0-1.522-0.683-1.522-1.522v-6.341
			c0-0.84,0.682-1.522,1.522-1.522h1.98c0.84,0,1.521,0.683,1.521,1.522V44.994z"/>
		<path fill="#1B3E6F" d="M34.578,44.994c0,0.84,0.684,1.522,1.523,1.522h1.979c0.841,0,1.524-0.683,1.524-1.522v-6.341
			c0-0.84-0.684-1.522-1.524-1.522h-1.979c-0.84,0-1.523,0.683-1.523,1.522V44.994z"/>
		<path fill="#95AFCF" d="M37.349,2.195c0-2.927-33.397-2.927-33.397,0.002l-3.009,30.48c0,0.463,0.681,0.305,1.522,0.305h16.688
			h2.994h16.688c0.841,0,1.522,0.158,1.522-0.305L37.349,2.195z"/>
		<path fill="#1C5F9F" d="M20.648,31.539c0,0-19.477,0.04-19.706,1.139v8.546c0,0.463,0.681,0.839,1.522,0.839h16.688h2.994h16.688
			c0.84,0,1.522-0.376,1.522-0.839v-8.546C40.127,31.579,20.658,31.539,20.648,31.539"/>
		<path fill="#EBEAEA" d="M41.3,40.25c0-1.99-0.942-1.906-0.942-1.906c0,2.704-18.624,2.037-19.682,1.992v-0.001
			c0,0-0.011,0-0.027,0c-0.016,0-0.025,0-0.025,0v0.001c-1.057,0.045-19.681,0.712-19.681-1.992c0,0-0.942-0.084-0.942,1.906
			c0,1.225,0.502,2.873,20.623,2.876h0.025h0.027C40.797,43.123,41.3,41.474,41.3,40.25"/>
		<path fill="#1B3E6F" d="M36.693,24.974c0,1.133-0.672,2.051-1.502,2.051H6.109c-0.831,0-1.503-0.918-1.503-2.051V12.648
			c0-1.133,0.672-2.05,1.503-2.05h29.082c0.83,0,1.502,0.917,1.502,2.05V24.974z"/>
		<path fill="#1B3E6F" d="M36.693,9.291c0,1.132-0.672,2.052-1.502,2.052H6.109c-0.831,0-1.503-0.92-1.503-2.052V5.224
			c0-1.132,2.984-2.05,3.816-2.05h24.456c0.831,0,3.814,0.918,3.814,2.05V9.291z"/>
		<path fill="#95AFCF" d="M13.074,5.682H12.34c0.586-0.168,1.01-0.657,1.01-1.233V2.704c0-0.717-0.656-1.299-1.464-1.299H8.145
			c-0.807,0-1.462,0.582-1.462,1.299v1.745c0,0.576,0.424,1.065,1.009,1.233H6.986c-1.314,0-2.382,1.264-2.382,2.824v3.799
			c0,1.56,1.067,2.825,2.382,2.825h6.088c1.314,0,2.381-1.266,2.381-2.825V8.506C15.455,6.946,14.389,5.682,13.074,5.682"/>
		<path fill="#1C5F9F" d="M12.353,5.695h-0.584c0.471-0.155,0.815-0.654,0.815-1.246V2.702c0-0.715-0.505-1.297-1.127-1.297H8.574
			c-0.622,0-1.127,0.582-1.127,1.297v1.747c0,0.592,0.346,1.091,0.815,1.246H7.679c-1.009,0-1.828,1.043-1.828,2.327v4.699
			c0,1.286,0.819,2.324,1.828,2.324h4.674c1.009,0,1.828-1.038,1.828-2.324V8.022C14.181,6.738,13.361,5.695,12.353,5.695"/>
		<path fill="#95AFCF" d="M23.672,5.682h-0.735c0.587-0.168,1.011-0.657,1.011-1.233V2.704c0-0.717-0.656-1.299-1.464-1.299h-3.741
			c-0.806,0-1.462,0.582-1.462,1.299v1.745c0,0.576,0.424,1.065,1.01,1.233h-0.706c-1.314,0-2.381,1.264-2.381,2.824v3.799
			c0,1.56,1.066,2.825,2.381,2.825h6.088c1.314,0,2.382-1.266,2.382-2.825V8.506C26.054,6.946,24.986,5.682,23.672,5.682"/>
		<path fill="#1C5F9F" d="M22.951,5.695h-0.586c0.472-0.155,0.817-0.654,0.817-1.246V2.702c0-0.715-0.506-1.297-1.128-1.297h-2.884
			c-0.62,0-1.126,0.582-1.126,1.297v1.747c0,0.592,0.346,1.091,0.816,1.246h-0.584c-1.01,0-1.828,1.043-1.828,2.327v4.699
			c0,1.286,0.818,2.324,1.828,2.324h4.674c1.009,0,1.828-1.038,1.828-2.324V8.022C24.779,6.738,23.96,5.695,22.951,5.695"/>
		<path fill="#95AFCF" d="M34.312,5.682h-0.734c0.586-0.168,1.01-0.657,1.01-1.233V2.704c0-0.717-0.656-1.299-1.464-1.299h-3.741
			c-0.806,0-1.462,0.582-1.462,1.299v1.745c0,0.576,0.424,1.065,1.01,1.233h-0.705c-1.315,0-2.381,1.264-2.381,2.824v3.799
			c0,1.56,1.065,2.825,2.381,2.825h6.087c1.315,0,2.382-1.266,2.382-2.825V8.506C36.693,6.946,35.627,5.682,34.312,5.682"/>
		<path fill="#1C5F9F" d="M33.59,5.695h-0.584c0.471-0.155,0.816-0.654,0.816-1.246V2.702c0-0.715-0.506-1.297-1.128-1.297h-2.882
			c-0.622,0-1.128,0.582-1.128,1.297v1.747c0,0.592,0.346,1.091,0.815,1.246h-0.584c-1.009,0-1.828,1.043-1.828,2.327v4.699
			c0,1.286,0.819,2.324,1.828,2.324h4.674c1.01,0,1.828-1.038,1.828-2.324V8.022C35.418,6.738,34.6,5.695,33.59,5.695"/>
		<path fill="#95AFCF" d="M36.693,12.46c0,1.131-0.672,2.051-1.502,2.051H6.109c-0.831,0-1.503-0.92-1.503-2.051v-1.174h32.087
			V12.46z"/>
		<path fill="#1C5F9F" d="M36.693,19.119c0,1.135-0.672,2.053-1.502,2.053H6.109c-0.831,0-1.503-0.918-1.503-2.053v-7.182h32.087
			V19.119z"/>
		<g>
			<path fill="#95AFCF" d="M16.187,18.943h-0.732c0.585-0.17,1.009-0.657,1.009-1.233v-1.745c0-0.716-0.655-1.297-1.463-1.297
				h-3.741c-0.807,0-1.462,0.581-1.462,1.297v1.745c0,0.576,0.424,1.063,1.009,1.233h-0.704c-1.314,0-2.383,1.266-2.383,2.825v3.798
				c0,1.56,1.068,1.758,2.383,1.758h6.085c1.316,0,2.383-0.198,2.383-1.758v-3.798C18.569,20.208,17.503,18.943,16.187,18.943"/>
			<path fill="#1C5F9F" d="M15.467,18.958h-0.586c0.473-0.157,0.816-0.654,0.816-1.248v-1.745c0-0.716-0.504-1.297-1.126-1.297
				h-2.883c-0.624,0-1.129,0.581-1.129,1.297v1.745c0,0.594,0.346,1.091,0.817,1.248h-0.584c-1.011,0-1.828,1.041-1.828,2.325v4.699
				c0,1.286,0.817,1.259,1.828,1.259h4.674c1.01,0,1.828,0.027,1.828-1.259v-4.699C17.295,19.999,16.477,18.958,15.467,18.958"/>
			<path fill="#95AFCF" d="M31.66,18.943h-0.734c0.585-0.17,1.009-0.657,1.009-1.233v-1.745c0-0.716-0.655-1.297-1.464-1.297h-3.74
				c-0.807,0-1.462,0.581-1.462,1.297v1.745c0,0.576,0.424,1.063,1.009,1.233h-0.703c-1.315,0-2.382,1.266-2.382,2.825v3.798
				c0,1.56,1.066,1.758,2.382,1.758h6.086c1.314,0,2.383-0.198,2.383-1.758v-3.798C34.043,20.208,32.975,18.943,31.66,18.943"/>
			<path fill="#1C5F9F" d="M30.938,18.958h-0.584c0.47-0.157,0.815-0.654,0.815-1.248v-1.745c0-0.716-0.504-1.297-1.127-1.297H27.16
				c-0.622,0-1.127,0.581-1.127,1.297v1.745c0,0.594,0.345,1.091,0.816,1.248h-0.583c-1.011,0-1.83,1.041-1.83,2.325v4.699
				c0,1.286,0.819,1.259,1.83,1.259h4.672c1.009,0,1.829,0.027,1.829-1.259v-4.699C32.768,19.999,31.947,18.958,30.938,18.958"/>
			<path fill="#95AFCF" d="M36.693,25.663c0,1.132-0.672,1.518-1.502,1.518H6.109c-0.831,0-1.503-0.386-1.503-1.518V24.49h32.087
				V25.663z"/>
			<path fill="#1C5F9F" d="M36.693,25.781c0,1.133-0.672,1.517-1.502,1.517H6.109c-0.831,0-1.503-0.384-1.503-1.517v-0.639h32.087
				V25.781z"/>
		</g>
		<path fill="#95AFCF" d="M25.635,38.33h-9.97c-0.752,0-1.361-2.067-1.361-2.067c0-0.752,0.609-1.359,1.361-1.359h9.97
			c0.752,0,1.361,0.607,1.361,1.359C26.996,36.262,26.387,38.33,25.635,38.33"/>
		<path fill="#1C5F9F" d="M25.844,36.077c0,0.209-0.171,0.381-0.384,0.381h-9.622c-0.211,0-0.383-0.172-0.383-0.381
			c0-0.213,0.172-0.384,0.383-0.384h9.622C25.673,35.693,25.844,35.864,25.844,36.077"/>
		<path fill="#1C5F9F" d="M25.199,37.363c0,0.211-0.171,0.382-0.382,0.382h-8.333c-0.211,0-0.385-0.171-0.385-0.382
			c0-0.212,0.174-0.383,0.385-0.383h8.333C25.028,36.98,25.199,37.151,25.199,37.363"/>
		<path fill="#C4C3C3" d="M5.825,35.673c0.323,1.151-0.55,1.231-1.231,1.231H3.032c-0.68,0-1.231-0.552-1.231-1.231v-1.221
			c0-0.68,0.552-1.229,1.231-1.229H4.01C4.982,33.223,5.642,35.019,5.825,35.673"/>
		<path fill="#C4C3C3" d="M5.825,37.871c0.323-0.525-0.55-0.564-1.231-0.564H3.032c-0.68,0-1.231,0.058-1.231,0.37v0.362
			c0,0.311,0.979,0.854,2.209,0.952C5.241,39.086,5.642,38.168,5.825,37.871"/>
		<path fill="#848485" d="M5.553,35.588c0.279,0.993-0.477,1.062-1.062,1.062H3.145c-0.586,0-1.062-0.476-1.062-1.062v-1.051
			c0-0.587,0.477-1.062,1.062-1.062h0.845C4.827,33.476,5.394,35.026,5.553,35.588"/>
		<path fill="#EBEAEA" d="M5.35,35.528c0.247,0.873-0.418,0.935-0.936,0.935H3.229c-0.517,0-0.937-0.42-0.937-0.935V34.6
			c0-0.517,0.42-0.936,0.937-0.936h0.742C4.709,33.665,5.209,35.029,5.35,35.528"/>
		<path fill="#848485" d="M5.547,37.951c0.251-0.334-0.472-0.401-1.054-0.401H3.154c-0.582,0-1.056,0.04-1.056,0.263v0.259
			c0,0.223,0.838,0.609,1.894,0.68C5.048,38.82,5.297,38.284,5.547,37.951"/>
		<path fill="#EBEAEA" d="M5.338,37.985c0.161-0.216-0.43-0.273-0.935-0.273H3.242c-0.507,0-0.915,0.026-0.915,0.174v0.213
			c0,0.147,0.726,0.408,1.643,0.452C4.885,38.597,5.176,38.201,5.338,37.985"/>
		<path fill="#C4C3C3" d="M35.475,35.673c-0.325,1.151,0.55,1.231,1.231,1.231h1.562c0.68,0,1.229-0.552,1.229-1.231v-1.221
			c0-0.68-0.55-1.229-1.229-1.229H37.29C36.317,33.223,35.658,35.019,35.475,35.673"/>
		<path fill="#C4C3C3" d="M35.475,37.871c-0.325-0.525,0.55-0.564,1.231-0.564h1.562c0.68,0,1.229,0.058,1.229,0.37v0.362
			c0,0.311-0.978,0.854-2.207,0.952C36.059,39.086,35.658,38.168,35.475,37.871"/>
		<path fill="#848485" d="M35.746,35.588c-0.279,0.993,0.476,1.062,1.062,1.062h1.347c0.585,0,1.061-0.476,1.061-1.062v-1.051
			c0-0.587-0.476-1.062-1.061-1.062h-0.843C36.475,33.476,35.904,35.026,35.746,35.588"/>
		<path fill="#EBEAEA" d="M35.949,35.528c-0.246,0.873,0.419,0.935,0.936,0.935h1.186c0.517,0,0.936-0.42,0.936-0.935V34.6
			c0-0.517-0.419-0.936-0.936-0.936h-0.742C36.59,33.665,36.09,35.029,35.949,35.528"/>
		<path fill="#848485" d="M35.751,37.951c-0.249-0.334,0.474-0.401,1.056-0.401h1.339c0.582,0,1.054,0.04,1.054,0.263v0.259
			c0,0.223-0.838,0.609-1.892,0.68C36.252,38.82,36.002,38.284,35.751,37.951"/>
		<path fill="#EBEAEA" d="M35.962,37.985c-0.159-0.216,0.429-0.273,0.935-0.273h1.161c0.505,0,0.915,0.026,0.915,0.174v0.213
			c0,0.147-0.727,0.408-1.642,0.452C36.415,38.597,36.122,38.201,35.962,37.985"/>
	</g>
	<g>
		<g>
			<path fill="#D8414C" d="M10.652,24.29v-3.034c0-0.097-0.083-0.099-0.176-0.176c-0.077-0.062,0.176,0.079,0.176,0.176V24.29h4.99
				v-2.994c0-0.097,0.253-0.239,0.176-0.177c-0.105,0.086-0.176,0.08-0.176,0.177v2.994h2.123v-3.891
				c0-1.042-0.847-1.886-1.888-1.886h-5.462c-1.041,0-1.887,0.844-1.887,1.886v3.891H10.652z"/>
			<path fill="#5B0D0D" d="M17.965,24.49H8.33v-4.091c0-1.15,0.936-2.086,2.086-2.086h5.462c1.149,0,2.087,0.936,2.087,2.086V24.49z
				 M15.843,24.088h1.723v-3.689c0-0.93-0.759-1.687-1.688-1.687h-5.462c-0.93,0-1.687,0.757-1.687,1.687v3.689h1.723v-2.783
				c-0.032-0.019-0.067-0.04-0.104-0.071l-0.108-0.089l0.033-0.146l0.048-0.133l0.141-0.002c0.097,0,0.2,0.085,0.255,0.133L10.72,21
				c0.088,0.064,0.133,0.15,0.133,0.256v2.833h4.589v-2.793c0-0.001,0-0.001,0-0.001c0.002-0.149,0.086-0.223,0.134-0.255
				l0.002-0.001c0.05-0.047,0.158-0.135,0.254-0.135h0.142l0.096,0.266l-0.122,0.104c-0.04,0.032-0.073,0.053-0.104,0.072V24.088z"
				/>
		</g>
		<g>
			<path fill="#AC1E23" d="M14.312,18.121c0.121,0.135,0.32,0.388,0.32,0.388l-0.883,0.806l-0.603-0.729l-0.603,0.729l-0.885-0.806
				c0,0,0.213-0.27,0.323-0.388c0.246-0.264,0.495-0.016,1.164,0.223C13.816,18.105,13.95,18.097,14.312,18.121"/>
			<path fill="#5B0D0D" d="M13.729,19.604l-0.582-0.706l-0.582,0.706l-1.177-1.073l0.114-0.146c0.01-0.011,0.222-0.277,0.333-0.399
				c0.112-0.12,0.236-0.178,0.384-0.178c0.163,0,0.323,0.07,0.544,0.165c0.108,0.048,0.236,0.103,0.384,0.158
				c0.626-0.219,0.79-0.235,1.177-0.208l0.082,0.005l0.053,0.061c0.125,0.138,0.331,0.396,0.331,0.396l0.117,0.146L13.729,19.604z
				 M11.934,18.487l0.59,0.538l0.443-0.536c-0.139-0.051-0.258-0.104-0.363-0.148c-0.17-0.074-0.302-0.133-0.384-0.133
				c-0.019,0-0.045,0-0.091,0.051C12.077,18.313,11.999,18.407,11.934,18.487z M13.328,18.491l0.443,0.534l0.588-0.538
				c-0.044-0.054-0.096-0.116-0.144-0.171C13.982,18.303,13.87,18.303,13.328,18.491z"/>
		</g>
		<g>
			<path fill="#E58890" d="M15.137,16.625c0,1.038-0.849,1.886-1.885,1.886h-0.209c-1.041,0-1.887-0.843-1.887-1.886v-2.069
				c0-0.96,0.779-1.737,1.738-1.737H13.4c0.959,0,1.736,0.777,1.736,1.737V16.625z"/>
			<path fill="#5B0D0D" d="M13.252,18.711h-0.209c-1.149,0-2.087-0.937-2.087-2.086v-2.069c0-1.069,0.87-1.938,1.938-1.938H13.4
				c1.068,0,1.937,0.868,1.937,1.938v2.069C15.337,17.775,14.401,18.711,13.252,18.711z M12.895,13.019
				c-0.848,0-1.538,0.688-1.538,1.537v2.069c0,0.929,0.758,1.688,1.687,1.688h0.209c0.929,0,1.686-0.759,1.686-1.688v-2.069
				c0-0.849-0.689-1.537-1.537-1.537H12.895z"/>
		</g>
		<g>
			<path fill="#AC1E23" d="M14.744,12.267c-0.747,1.038-2.588-0.731-3.588,1.038c-0.289,0.51-0.341,1.838-0.037,2.345
				c0.075-0.275,0.32-0.88,0.537-1.337c0.969,0.638,2.426,0.257,2.979,0.108c0.285,0.421,0.493,0.886,0.554,1.229
				C15.58,15.045,15.658,12.952,14.744,12.267z"/>
			<path fill="#5B0D0D" d="M15.083,16.181l-0.091-0.496c-0.053-0.286-0.22-0.674-0.445-1.033c-0.341,0.09-0.903,0.219-1.505,0.219
				c-0.502,0-0.938-0.093-1.296-0.275c-0.188,0.421-0.372,0.885-0.434,1.105l-0.121,0.453l-0.241-0.401
				c-0.353-0.581-0.282-1.991,0.032-2.547c0.361-0.637,0.856-0.933,1.565-0.933c0.267,0,0.529,0.04,0.785,0.079
				c0.226,0.035,0.438,0.066,0.63,0.066c0.298,0,0.483-0.08,0.617-0.269l0.121-0.164l0.161,0.121
				c0.995,0.744,0.942,2.961,0.494,3.651L15.083,16.181z M14.722,14.191l0.079,0.118c0.159,0.235,0.295,0.483,0.397,0.72
				c0.147-0.737,0.089-1.921-0.438-2.479c-0.198,0.179-0.462,0.269-0.797,0.269c-0.222,0-0.451-0.035-0.69-0.072
				c-0.24-0.037-0.488-0.073-0.725-0.073c-0.564,0-0.928,0.217-1.218,0.729c-0.179,0.314-0.262,1.047-0.193,1.604
				c0.105-0.265,0.232-0.552,0.341-0.78l0.1-0.206l0.191,0.126c0.326,0.215,0.755,0.325,1.273,0.325c0.64,0,1.249-0.163,1.542-0.242
				L14.722,14.191z"/>
		</g>
	</g>
	<g>
		<g>
			<rect x="26.523" y="16.608" fill="#AC1E23" width="4.157" height="1.858"/>
			<path fill="#5B0D0D" d="M30.881,18.667h-4.557v-2.259h4.557V18.667z M26.724,18.266h3.757v-1.458h-3.757V18.266z"/>
		</g>
		<g>
			<path fill="#D8414C" d="M26.581,24.29v-2.944c0-0.104,0-0.104,0,0V24.29h4.042v-2.901c0-0.105,0-0.105,0,0v2.901h1.788v-3.702
				c0-1.129-0.915-2.553-2.044-2.553h-3.531c-1.128,0-2.043,1.424-2.043,2.553v3.702H26.581z"/>
			<path fill="#5B0D0D" d="M32.609,24.49h-8.016v-3.902c0-1.248,0.999-2.753,2.242-2.753h3.531c1.244,0,2.242,1.505,2.242,2.753
				V24.49z M30.823,24.09h1.388v-3.503c0-1.059-0.851-2.353-1.844-2.353h-3.531c-0.992,0-1.843,1.294-1.843,2.353v3.503h1.388
				v-2.823h0.4v2.823h3.643v-2.782h0.399V24.09z"/>
		</g>
		<g>
			<path fill="#D8414C" d="M29.699,19.865c-0.596,0-1.075,0.47-1.098,1.059c-0.021-0.589-0.502-1.059-1.096-1.059
				c-0.606,0-1.099,0.49-1.099,1.099c0,0.606,0.492,1.099,1.099,1.099c0.594,0,1.075-0.203,1.096-0.79
				c0.022,0.587,0.502,0.79,1.098,0.79c0.605,0,1.099-0.492,1.099-1.099C30.798,20.355,30.305,19.865,29.699,19.865z"/>
		</g>
		<g>
			<path fill="#5B0D0D" d="M30.588,20.59c0.048,0.115,0.075,0.24,0.075,0.373c0,0.53-0.434,0.964-0.964,0.964
				c-0.624,0-0.947-0.222-0.963-0.66h-0.27c-0.016,0.438-0.339,0.66-0.961,0.66c-0.531,0-0.965-0.434-0.965-0.964
				c0-0.133,0.025-0.258,0.076-0.373c-0.095,0-0.188,0-0.28,0c-0.038,0.118-0.064,0.241-0.064,0.373c0,0.68,0.554,1.233,1.233,1.233
				c0.536,0,0.91-0.157,1.096-0.453c0.186,0.296,0.562,0.453,1.098,0.453c0.68,0,1.232-0.554,1.232-1.233
				c0-0.132-0.027-0.255-0.063-0.373C30.775,20.59,30.68,20.59,30.588,20.59z"/>
		</g>
		<g>
			<path fill="#E58890" d="M28.83,12.727h-0.455c-0.864,0-1.564,0.701-1.564,1.564v1.863c0,0.634,0.524,1.183,1.061,1.475v0.403
				h-0.659l0.161,1.66l1.229,1.205l1.229-1.205l0.163-1.66h-0.659v-0.403c0.536-0.292,1.061-0.844,1.061-1.475v-1.863
				C30.395,13.428,29.693,12.727,28.83,12.727z"/>
			<path fill="#5B0D0D" d="M28.602,21.177l-1.42-1.392l-0.19-1.953h0.68v-0.088c-0.513-0.31-1.061-0.888-1.061-1.59v-1.863
				c0-0.974,0.792-1.764,1.765-1.764h0.455c0.973,0,1.765,0.79,1.765,1.764v1.863c0,0.701-0.551,1.278-1.062,1.59v0.088h0.682
				l-0.192,1.953L28.602,21.177z M27.565,19.602l1.036,1.016l1.036-1.016l0.135-1.369h-0.64v-0.722l0.105-0.058
				c0.441-0.239,0.956-0.725,0.956-1.299v-1.863c0-0.753-0.61-1.364-1.364-1.364h-0.455c-0.752,0-1.365,0.611-1.365,1.364v1.863
				c0,0.574,0.516,1.06,0.957,1.299l0.104,0.058v0.722h-0.64L27.565,19.602z"/>
		</g>
		<g>
			<path fill="#AC1E23" d="M28.602,12.539c-3.965,0-2.68,6.364-2.68,6.364c0.421,0.237,1.281-0.056,1.281-0.056v-4.41
				c1.032,0.165,2.066,0.128,2.798,0.048v4.362c0,0,0.86,0.293,1.281,0.056C31.282,18.903,32.568,12.539,28.602,12.539z"/>
			<path fill="#5B0D0D" d="M30.841,19.194L30.841,19.194c-0.432,0-0.885-0.151-0.903-0.158l-0.137-0.046v-4.284
				c-0.811,0.072-1.653,0.062-2.397-0.036v4.32l-0.136,0.046c-0.02,0.007-0.472,0.158-0.904,0.158c-0.219,0-0.4-0.038-0.54-0.118
				l-0.078-0.045l-0.02-0.09c-0.032-0.154-0.755-3.848,0.717-5.647c0.52-0.633,1.246-0.955,2.159-0.955
				c0.915,0,1.641,0.322,2.161,0.955c1.472,1.8,0.747,5.493,0.716,5.647l-0.018,0.09l-0.08,0.045
				C31.242,19.156,31.06,19.194,30.841,19.194z M30.201,18.697c0.15,0.041,0.404,0.099,0.64,0.099c0.104,0,0.193-0.013,0.264-0.035
				c0.105-0.6,0.573-3.717-0.652-5.214c-0.44-0.536-1.061-0.808-1.851-0.808c-0.787,0-1.41,0.271-1.85,0.808
				c-1.225,1.497-0.758,4.614-0.652,5.214c0.07,0.022,0.16,0.035,0.264,0.035c0.237,0,0.488-0.058,0.641-0.099v-4.493l0.23,0.037
				c0.472,0.075,0.98,0.113,1.515,0.113c0.406,0,0.831-0.023,1.231-0.067l0.221-0.023V18.697z"/>
		</g>
		<g>
			<rect x="24.793" y="22.353" fill="#E58890" width="1.788" height="1.937"/>
			<path fill="#5B0D0D" d="M26.781,24.49h-2.188v-2.337h2.188V24.49z M24.993,24.09h1.388v-1.537h-1.388V24.09z"/>
		</g>
		<g>
			<rect x="30.623" y="22.353" fill="#E58890" width="1.788" height="1.937"/>
			<path fill="#5B0D0D" d="M32.609,24.49h-2.186v-2.337h2.186V24.49z M30.823,24.09h1.388v-1.537h-1.388V24.09z"/>
		</g>
	</g>
	<g>
		<g>
			<g>
				<path fill="#D8414C" d="M18.794,11.071V8.814c0-0.08-0.067-0.082-0.145-0.145c-0.061-0.051,0.145,0.064,0.145,0.145V11.071
					h3.639V8.845c0-0.08,0.206-0.194,0.146-0.146c-0.086,0.07-0.146,0.065-0.146,0.146v2.226h1.515v-2.74
					c0-0.851-0.908-1.539-1.758-1.539h-3.152c-0.85,0-1.757,0.688-1.757,1.539v2.74H18.794z"/>
				<path fill="#5B0D0D" d="M24.146,11.27H17.08V8.331c0-0.995,1.033-1.738,1.957-1.738h3.152c0.924,0,1.957,0.743,1.957,1.738
					V11.27z M22.633,10.871h1.113v-2.54c0-0.753-0.837-1.339-1.557-1.339h-3.152c-0.721,0-1.557,0.586-1.557,1.339v2.54h1.115V8.875
					c-0.027-0.018-0.049-0.032-0.072-0.052l-0.109-0.089l0.037-0.146l0.048-0.132h0.142c0.086,0,0.176,0.067,0.229,0.117
					l0.003,0.003c0.08,0.06,0.122,0.14,0.122,0.237v2.057h3.237V8.845c0-0.099,0.042-0.179,0.121-0.236l0.004-0.003
					c0.048-0.045,0.141-0.117,0.23-0.117h0.141l0.096,0.266l-0.121,0.101c-0.026,0.021-0.049,0.039-0.07,0.052V10.871z"/>
			</g>
			<g>
				<rect x="22.433" y="9.708" fill="#E58890" width="1.515" height="1.363"/>
				<path fill="#5B0D0D" d="M24.146,11.27h-1.914V9.507h1.914V11.27z M22.633,10.871h1.113V9.908h-1.113V10.871z"/>
			</g>
			<g>
				<rect x="17.28" y="9.708" fill="#E58890" width="1.515" height="1.363"/>
				<path fill="#5B0D0D" d="M18.995,11.27H17.08V9.507h1.915V11.27z M17.48,10.871h1.115V9.908H17.48V10.871z"/>
			</g>
		</g>
		<g>
			<path fill="#E58890" d="M22.438,5.599c0,0.949-0.778,1.949-1.729,1.949h-0.192c-0.955,0-1.729-0.995-1.729-1.949V4.141
				c0-0.881,0.713-1.593,1.593-1.593h0.464c0.88,0,1.593,0.712,1.593,1.593V5.599z"/>
			<path fill="#5B0D0D" d="M20.71,7.749h-0.192c-1.104,0-1.929-1.136-1.929-2.149V4.141c0-0.988,0.805-1.793,1.793-1.793h0.464
				c0.988,0,1.793,0.805,1.793,1.793v1.458C22.639,6.613,21.813,7.749,20.71,7.749z M20.382,2.749c-0.768,0-1.394,0.624-1.394,1.393
				v1.458c0,0.808,0.669,1.749,1.529,1.749h0.192c0.86,0,1.528-0.941,1.528-1.749V4.141c0-0.769-0.625-1.393-1.393-1.393H20.382z"/>
		</g>
		<g>
			<path fill="#AC1E23" d="M20.777,1.77c-0.002-0.007-0.326-0.007-0.328,0c-2.957,0.291-2.123,3.263-1.8,3.704
				c0,0,0.371-0.888,0.514-1.521c0.524,0.303,1.108,0.355,1.376,0.363l0,0h0.148l0,0c0.269-0.008,0.853-0.061,1.375-0.363
				c0.145,0.634,0.516,1.521,0.516,1.521C22.901,5.033,23.736,2.059,20.777,1.77z"/>
			<path fill="#5B0D0D" d="M18.699,5.875L18.49,5.592c-0.238-0.325-0.656-1.646-0.186-2.703c0.236-0.529,0.796-1.188,2.125-1.318
				v0.002c0.101-0.015,0.258-0.016,0.366,0V1.571c1.331,0.13,1.891,0.789,2.128,1.318c0.47,1.058,0.053,2.378-0.186,2.703
				l-0.21,0.283L22.393,5.55c-0.015-0.033-0.295-0.707-0.461-1.307c-0.481,0.216-0.969,0.265-1.238,0.273h-0.154
				c-0.273-0.009-0.762-0.058-1.243-0.273c-0.167,0.6-0.448,1.273-0.461,1.307L18.699,5.875z M22.199,3.646l0.059,0.264
				c0.077,0.331,0.218,0.74,0.33,1.045c0.148-0.478,0.257-1.256-0.029-1.902c-0.281-0.629-0.888-0.993-1.801-1.083l-0.029-0.003
				c-0.056-0.002-0.176-0.002-0.231,0L20.47,1.969c-0.915,0.09-1.52,0.454-1.801,1.083c-0.286,0.646-0.179,1.425-0.03,1.902
				c0.113-0.305,0.254-0.714,0.329-1.045l0.06-0.264l0.236,0.134c0.474,0.273,1.006,0.328,1.283,0.336h0.141
				c0.269-0.008,0.801-0.062,1.276-0.336L22.199,3.646z"/>
		</g>
	</g>
</g>
</svg>
