<?xml version="1.0" encoding="utf-8"?>
<!-- Generator: Adobe Illustrator 15.0.0, SVG Export Plug-In . SVG Version: 6.00 Build 0)  -->
<!DOCTYPE svg PUBLIC "-//W3C//DTD SVG 1.1//EN" "http://www.w3.org/Graphics/SVG/1.1/DTD/svg11.dtd">
<svg version="1.1" id="Layer_1" xmlns="http://www.w3.org/2000/svg" xmlns:xlink="http://www.w3.org/1999/xlink" x="0px" y="0px"
	 width="56.593px" height="48.092px" viewBox="0 0 56.593 48.092" enable-background="new 0 0 56.593 48.092" xml:space="preserve">
<g>
	<g>
		<g>
			<path fill="#E58890" d="M15.252,21.378c0.654,0.547,0.797,1.569,0.32,2.283c-0.479,0.714-1.395,0.849-2.05,0.301
				c-0.654-0.549-0.798-1.57-0.32-2.284C13.68,20.965,14.598,20.83,15.252,21.378"/>
			<path fill="#5B0D0D" d="M14.422,24.576c-0.391,0-0.764-0.14-1.077-0.402c-0.759-0.635-0.926-1.824-0.372-2.65
				c0.322-0.482,0.826-0.76,1.38-0.76c0.392,0,0.763,0.139,1.077,0.401c0.758,0.635,0.925,1.823,0.373,2.65
				C15.479,24.299,14.977,24.576,14.422,24.576z M14.353,21.317c-0.366,0-0.702,0.188-0.921,0.514
				c-0.4,0.599-0.28,1.459,0.269,1.918c0.213,0.179,0.462,0.273,0.722,0.273c0.366,0,0.702-0.188,0.921-0.515
				c0.399-0.6,0.279-1.459-0.269-1.918C14.861,21.411,14.611,21.317,14.353,21.317z"/>
		</g>
		<g>
			<polygon fill="#D8414C" points="10.502,17.401 8.772,19.984 13.522,23.961 15.252,21.378 			"/>
			<path fill="#5B0D0D" d="M13.581,24.371l-5.177-4.334l2.039-3.046l5.176,4.334L13.581,24.371z M9.141,19.932l4.322,3.619
				l1.421-2.121l-4.323-3.618L9.141,19.932z"/>
		</g>
		<g>
			<path fill="#AC1E23" d="M7.888,27.982l-2.69-1.091l-3.68,18.319c-0.336,0.93,0.044,1.979,0.851,2.346
				c0.806,0.366,1.731-0.092,2.067-1.021l6.143-17.46L7.888,27.982z"/>
			<path fill="#5B0D0D" d="M2.944,47.96L2.944,47.96c-0.237,0-0.47-0.052-0.69-0.151c-0.928-0.421-1.374-1.615-1.003-2.672
				l3.741-18.628l5.935,2.409l-0.089,0.249l-6.141,17.46C4.404,47.437,3.717,47.96,2.944,47.96z M5.403,27.273L1.778,45.305
				c-0.288,0.797,0.028,1.693,0.704,2c0.148,0.067,0.305,0.102,0.462,0.102c0.536,0,1.02-0.379,1.231-0.965l6.053-17.209
				L5.403,27.273z"/>
		</g>
		<g>
			<path fill="#AC1E23" d="M13.35,45.425L11,27.552V24.95H5.23v2.916c0,0.327,0.048,0.641,0.134,0.935l0,0
				c0.046,0.154,0.101,0.302,0.167,0.443l4.826,17.34c0.278,0.947,1.176,1.456,2.002,1.135
				C13.186,47.399,13.629,46.371,13.35,45.425"/>
			<path fill="#5B0D0D" d="M11.854,48.092L11.854,48.092c-0.803,0-1.51-0.574-1.762-1.43L5.271,29.34
				c-0.063-0.138-0.119-0.284-0.164-0.437l-0.009-0.024c-0.097-0.329-0.146-0.67-0.146-1.013v-3.192h6.324v2.878l2.345,17.816
				c0.306,1.074-0.213,2.241-1.163,2.609C12.264,48.054,12.059,48.092,11.854,48.092z M5.625,28.708l0.005,0.015
				C5.672,28.865,5.723,29,5.782,29.126l0.016,0.043l4.825,17.341c0.182,0.613,0.676,1.029,1.23,1.029l0,0
				c0.137,0,0.273-0.026,0.405-0.077c0.694-0.27,1.065-1.147,0.825-1.959l-0.008-0.042l-2.35-17.874l-0.003-2.359H5.507v2.639
				C5.507,28.151,5.547,28.434,5.625,28.708z"/>
		</g>
		<g>
			<path fill="#D8414C" d="M8.268,9.109h-0.07c-1.893,0-3.427,1.759-3.427,3.93v11.974h6.925V13.039
				C11.695,10.868,10.16,9.109,8.268,9.109"/>
			<path fill="#5B0D0D" d="M11.972,25.29H4.493V13.039c0-2.319,1.662-4.206,3.704-4.206h0.07c2.042,0,3.704,1.887,3.704,4.206V25.29
				z M5.047,24.736h6.371V13.039c0-2.014-1.414-3.653-3.15-3.653h-0.07c-1.736,0-3.15,1.64-3.15,3.653V24.736z"/>
		</g>
		<g>
			<path fill="#E58890" d="M8.261,9.61H8.204c-1.534,0-2.778-1.427-2.778-3.185V4.662c0-1.758,1.244-3.185,2.778-3.185h0.057
				c1.534,0,2.778,1.427,2.778,3.185v1.764C11.039,8.184,9.795,9.61,8.261,9.61"/>
			<path fill="#5B0D0D" d="M8.261,9.887H8.204c-1.685,0-3.055-1.553-3.055-3.461V4.662c0-1.908,1.37-3.462,3.055-3.462h0.057
				c1.685,0,3.055,1.554,3.055,3.462v1.764C11.315,8.334,9.945,9.887,8.261,9.887z M8.204,1.754c-1.379,0-2.502,1.305-2.502,2.908
				v1.764c0,1.603,1.123,2.907,2.502,2.907h0.057c1.379,0,2.501-1.305,2.501-2.907V4.662c0-1.604-1.122-2.908-2.501-2.908H8.204z"/>
		</g>
		<g>
			<polygon fill="#AC1E23" points="10.504,10.669 6.232,9.833 6.816,8.992 9.922,8.992 			"/>
			<path fill="#5B0D0D" d="M10.923,11.033l-5.159-1.01l0.907-1.308h3.446L10.923,11.033z M6.701,9.643l3.383,0.662L9.725,9.27H6.96
				L6.701,9.643z"/>
		</g>
		<g>
			<path fill="#AC1E23" d="M7.904,4.29c0,0,2.059-0.083,2.807-0.459s1.275-0.836,0.328-3.134c-0.984,2.173-5.613-1.42-5.613,1.965
				c-0.655,0.333-0.734,3.353,0,4.637C6.046,7.341,7.977,7.652,7.904,4.29L7.904,4.29z"/>
			<path fill="#5B0D0D" d="M5.904,7.602L5.904,7.602c-0.156,0-0.296-0.011-0.41-0.02L5.259,7.564L5.186,7.437
				C4.573,6.367,4.483,4.253,4.812,3.149c0.087-0.29,0.199-0.498,0.339-0.63c0.043-1.124,0.602-1.671,1.706-1.671
				c0.439,0,0.932,0.083,1.408,0.162C8.73,1.09,9.212,1.17,9.625,1.17c0.619,0,0.979-0.181,1.162-0.587L11.051,0l0.244,0.592
				c0.93,2.256,0.536,2.986-0.46,3.486c-0.632,0.317-2.056,0.438-2.652,0.475C8.17,5.69,7.916,6.521,7.423,7.025
				C7.043,7.413,6.547,7.602,5.904,7.602z M5.6,7.035c0.089,0.006,0.193,0.013,0.305,0.013l0,0c0.484,0,0.853-0.134,1.122-0.409
				c0.423-0.433,0.626-1.221,0.602-2.342L7.622,4.024l0.271-0.011c0.557-0.022,2.125-0.144,2.694-0.43
				c0.528-0.266,1.03-0.518,0.382-2.306c-0.309,0.299-0.753,0.445-1.344,0.445c-0.46,0-0.964-0.084-1.451-0.167
				C7.698,1.477,7.25,1.402,6.857,1.402c-0.693,0-1.155,0.213-1.155,1.26v0.17L5.551,2.908C5.547,2.91,5.445,2.966,5.344,3.308
				C5.065,4.237,5.137,6.078,5.6,7.035z"/>
		</g>
		<g>
			<g>
				<path fill="#E58890" d="M3.152,25.187c-0.191,1.019-0.98,1.644-1.764,1.395c-0.781-0.248-1.262-1.275-1.07-2.295
					c0.19-1.019,0.979-1.644,1.762-1.396C2.863,23.14,3.342,24.167,3.152,25.187"/>
				<path fill="#5B0D0D" d="M1.736,26.912c-0.145,0-0.289-0.021-0.431-0.066c-0.91-0.29-1.476-1.46-1.26-2.61
					c0.185-0.987,0.879-1.676,1.688-1.676c0.146,0,0.29,0.022,0.431,0.067c0.91,0.29,1.476,1.46,1.26,2.609
					C3.239,26.224,2.545,26.912,1.736,26.912z M1.733,23.113c-0.538,0-1.008,0.503-1.144,1.224c-0.162,0.87,0.242,1.777,0.883,1.981
					c0.623,0.198,1.25-0.346,1.408-1.184c0.162-0.869-0.243-1.775-0.884-1.98C1.91,23.127,1.821,23.113,1.733,23.113z"/>
			</g>
			<g>
				<g>
					<path fill="#D8414C" d="M5.109,12.188l-3.096,3.914l0.002,0.001c-0.146,0.219-0.256,0.485-0.312,0.786l-1.385,7.397l2.834,0.9
						l1.302-6.956l2.681-4.066L5.109,12.188z"/>
				</g>
				<g>
					<path fill="#5B0D0D" d="M6.816,14.184l-2.604,3.949l-1.26,6.723l-2.342-0.744l1.344-7.176c0.048-0.255,0.143-0.494,0.273-0.691
						l2.881-4.057l-0.038-0.831l-3.267,4.597l-0.151,0.216l0.02,0.014c-0.102,0.202-0.178,0.427-0.221,0.658l-1.427,7.62
						l3.324,1.057l1.348-7.188l2.756-4.185L6.816,14.184z"/>
				</g>
			</g>
		</g>
	</g>
	<g>
		<g>
			<path fill="#E58890" d="M35.484,21.378c0.654,0.547,0.797,1.569,0.32,2.283c-0.479,0.714-1.395,0.849-2.05,0.301
				c-0.654-0.549-0.798-1.57-0.32-2.284C33.912,20.965,34.83,20.83,35.484,21.378"/>
			<path fill="#5B0D0D" d="M34.654,24.576c-0.391,0-0.764-0.14-1.077-0.402c-0.759-0.635-0.926-1.824-0.372-2.65
				c0.322-0.482,0.826-0.76,1.38-0.76c0.392,0,0.763,0.139,1.077,0.401c0.758,0.635,0.925,1.823,0.373,2.65
				C35.711,24.299,35.209,24.576,34.654,24.576z M34.585,21.317c-0.366,0-0.702,0.188-0.921,0.514
				c-0.4,0.599-0.28,1.459,0.269,1.918c0.213,0.179,0.462,0.273,0.722,0.273c0.366,0,0.702-0.188,0.921-0.515
				c0.399-0.6,0.279-1.459-0.269-1.918C35.094,21.411,34.844,21.317,34.585,21.317z"/>
		</g>
		<g>
			<polygon fill="#D8414C" points="30.734,17.401 29.005,19.984 33.755,23.961 35.484,21.378 			"/>
			<path fill="#5B0D0D" d="M33.813,24.371l-5.177-4.334l2.039-3.046l5.176,4.334L33.813,24.371z M29.373,19.932l4.322,3.619
				l1.421-2.121l-4.323-3.618L29.373,19.932z"/>
		</g>
		<g>
			<path fill="#AC1E23" d="M28.12,27.982l-2.69-1.091l-3.68,18.319c-0.336,0.93,0.044,1.979,0.851,2.346
				c0.806,0.366,1.731-0.092,2.067-1.021l6.143-17.46L28.12,27.982z"/>
			<path fill="#5B0D0D" d="M23.177,47.96L23.177,47.96c-0.237,0-0.47-0.052-0.69-0.151c-0.928-0.421-1.374-1.615-1.003-2.672
				l3.741-18.628l5.935,2.409l-0.089,0.249l-6.141,17.46C24.637,47.437,23.949,47.96,23.177,47.96z M25.636,27.273l-3.625,18.031
				c-0.288,0.797,0.028,1.693,0.704,2c0.148,0.067,0.305,0.102,0.462,0.102c0.536,0,1.02-0.379,1.231-0.965l6.053-17.209
				L25.636,27.273z"/>
		</g>
		<g>
			<path fill="#AC1E23" d="M33.582,45.425l-2.35-17.873V24.95h-5.77v2.916c0,0.327,0.048,0.641,0.134,0.935l0,0
				c0.046,0.154,0.101,0.302,0.167,0.443l4.826,17.34c0.278,0.947,1.176,1.456,2.002,1.135
				C33.418,47.399,33.861,46.371,33.582,45.425"/>
			<path fill="#5B0D0D" d="M32.086,48.092L32.086,48.092c-0.803,0-1.51-0.574-1.762-1.43l-4.82-17.322
				c-0.063-0.138-0.119-0.284-0.164-0.437l-0.009-0.024c-0.097-0.329-0.146-0.67-0.146-1.013v-3.192h6.324v2.878l2.345,17.816
				c0.306,1.074-0.213,2.241-1.163,2.609C32.496,48.054,32.291,48.092,32.086,48.092z M25.857,28.708l0.005,0.015
				c0.042,0.143,0.093,0.277,0.152,0.403l0.016,0.043l4.825,17.341c0.182,0.613,0.676,1.029,1.23,1.029l0,0
				c0.137,0,0.273-0.026,0.405-0.077c0.694-0.27,1.065-1.147,0.825-1.959l-0.008-0.042l-2.35-17.874l-0.003-2.359h-5.217v2.639
				C25.739,28.151,25.779,28.434,25.857,28.708z"/>
		</g>
		<g>
			<path fill="#D8414C" d="M28.5,9.109h-0.07c-1.893,0-3.427,1.759-3.427,3.93v11.974h6.925V13.039
				C31.928,10.868,30.393,9.109,28.5,9.109"/>
			<path fill="#5B0D0D" d="M32.204,25.29h-7.479V13.039c0-2.319,1.662-4.206,3.704-4.206h0.07c2.042,0,3.704,1.887,3.704,4.206
				V25.29z M25.279,24.736h6.371V13.039c0-2.014-1.414-3.653-3.15-3.653h-0.07c-1.736,0-3.15,1.64-3.15,3.653V24.736z"/>
		</g>
		<g>
			<path fill="#E58890" d="M28.493,9.61h-0.057c-1.534,0-2.778-1.427-2.778-3.185V4.662c0-1.758,1.244-3.185,2.778-3.185h0.057
				c1.534,0,2.778,1.427,2.778,3.185v1.764C31.271,8.184,30.027,9.61,28.493,9.61"/>
			<path fill="#5B0D0D" d="M28.493,9.887h-0.057c-1.685,0-3.055-1.553-3.055-3.461V4.662c0-1.908,1.37-3.462,3.055-3.462h0.057
				c1.685,0,3.055,1.554,3.055,3.462v1.764C31.548,8.334,30.178,9.887,28.493,9.887z M28.437,1.754
				c-1.379,0-2.502,1.305-2.502,2.908v1.764c0,1.603,1.123,2.907,2.502,2.907h0.057c1.379,0,2.501-1.305,2.501-2.907V4.662
				c0-1.604-1.122-2.908-2.501-2.908H28.437z"/>
		</g>
		<g>
			<polygon fill="#AC1E23" points="30.736,10.669 26.465,9.833 27.049,8.992 30.154,8.992 			"/>
			<path fill="#5B0D0D" d="M31.155,11.033l-5.159-1.01l0.907-1.308h3.446L31.155,11.033z M26.934,9.643l3.383,0.662L29.957,9.27
				h-2.765L26.934,9.643z"/>
		</g>
		<g>
			<path fill="#AC1E23" d="M28.137,4.29c0,0,2.059-0.083,2.807-0.459s1.275-0.836,0.328-3.134c-0.984,2.173-5.613-1.42-5.613,1.965
				c-0.655,0.333-0.734,3.353,0,4.637C26.278,7.341,28.209,7.652,28.137,4.29L28.137,4.29z"/>
			<path fill="#5B0D0D" d="M26.137,7.602L26.137,7.602c-0.156,0-0.296-0.011-0.41-0.02l-0.235-0.018l-0.073-0.128
				c-0.612-1.069-0.702-3.184-0.373-4.287c0.087-0.29,0.199-0.498,0.339-0.63c0.043-1.124,0.602-1.671,1.706-1.671
				c0.439,0,0.932,0.083,1.408,0.162c0.465,0.079,0.946,0.159,1.359,0.159c0.619,0,0.979-0.181,1.162-0.587L31.283,0l0.244,0.592
				c0.93,2.256,0.536,2.986-0.46,3.486c-0.632,0.317-2.056,0.438-2.652,0.475c-0.013,1.138-0.267,1.968-0.76,2.473
				C27.275,7.413,26.779,7.602,26.137,7.602z M25.832,7.035c0.089,0.006,0.193,0.013,0.305,0.013l0,0
				c0.484,0,0.853-0.134,1.122-0.409c0.423-0.433,0.626-1.221,0.602-2.342l-0.006-0.272l0.271-0.011
				c0.557-0.022,2.125-0.144,2.694-0.43c0.528-0.266,1.03-0.518,0.382-2.306c-0.309,0.299-0.753,0.445-1.344,0.445
				c-0.46,0-0.964-0.084-1.451-0.167c-0.476-0.08-0.924-0.154-1.316-0.154c-0.693,0-1.155,0.213-1.155,1.26v0.17l-0.151,0.076
				c-0.004,0.002-0.105,0.058-0.207,0.399C25.298,4.237,25.369,6.078,25.832,7.035z"/>
		</g>
		<g>
			<g>
				<path fill="#E58890" d="M23.385,25.187c-0.191,1.019-0.98,1.644-1.764,1.395c-0.781-0.248-1.262-1.275-1.07-2.295
					c0.19-1.019,0.979-1.644,1.762-1.396C23.096,23.14,23.574,24.167,23.385,25.187"/>
				<path fill="#5B0D0D" d="M21.969,26.912c-0.145,0-0.289-0.021-0.431-0.066c-0.91-0.29-1.476-1.46-1.26-2.61
					c0.185-0.987,0.879-1.676,1.688-1.676c0.146,0,0.29,0.022,0.431,0.067c0.91,0.29,1.476,1.46,1.26,2.609
					C23.472,26.224,22.777,26.912,21.969,26.912z M21.966,23.113c-0.538,0-1.008,0.503-1.144,1.224
					c-0.162,0.87,0.242,1.777,0.883,1.981c0.623,0.198,1.25-0.346,1.408-1.184c0.162-0.869-0.243-1.775-0.884-1.98
					C22.143,23.127,22.054,23.113,21.966,23.113z"/>
			</g>
			<g>
				<g>
					<path fill="#D8414C" d="M25.342,12.188l-3.096,3.914l0.002,0.001c-0.146,0.219-0.256,0.485-0.312,0.786l-1.385,7.397l2.834,0.9
						l1.302-6.956l2.681-4.066L25.342,12.188z"/>
				</g>
				<g>
					<path fill="#5B0D0D" d="M27.049,14.184l-2.604,3.949l-1.26,6.723l-2.342-0.744l1.344-7.176
						c0.048-0.255,0.143-0.494,0.273-0.691l2.881-4.057l-0.038-0.831l-3.267,4.597l-0.151,0.216l0.02,0.014
						c-0.102,0.202-0.178,0.427-0.221,0.658l-1.427,7.62l3.324,1.057l1.348-7.188l2.756-4.185L27.049,14.184z"/>
				</g>
			</g>
		</g>
	</g>
	<g>
		<g>
			<path fill="#E58890" d="M55.717,21.378c0.654,0.547,0.797,1.569,0.32,2.283c-0.479,0.714-1.395,0.849-2.05,0.301
				c-0.654-0.549-0.798-1.57-0.32-2.284C54.145,20.965,55.062,20.83,55.717,21.378"/>
			<path fill="#5B0D0D" d="M54.887,24.576c-0.391,0-0.764-0.14-1.077-0.402c-0.759-0.635-0.926-1.824-0.372-2.65
				c0.322-0.482,0.826-0.76,1.38-0.76c0.392,0,0.763,0.139,1.077,0.401c0.758,0.635,0.925,1.823,0.373,2.65
				C55.943,24.299,55.441,24.576,54.887,24.576z M54.817,21.317c-0.366,0-0.702,0.188-0.921,0.514
				c-0.4,0.599-0.28,1.459,0.269,1.918c0.213,0.179,0.462,0.273,0.722,0.273c0.366,0,0.702-0.188,0.921-0.515
				c0.399-0.6,0.279-1.459-0.269-1.918C55.326,21.411,55.076,21.317,54.817,21.317z"/>
		</g>
		<g>
			<polygon fill="#D8414C" points="50.967,17.401 49.237,19.984 53.987,23.961 55.717,21.378 			"/>
			<path fill="#5B0D0D" d="M54.046,24.371l-5.177-4.334l2.039-3.046l5.176,4.334L54.046,24.371z M49.605,19.932l4.322,3.619
				l1.421-2.121l-4.323-3.618L49.605,19.932z"/>
		</g>
		<g>
			<path fill="#AC1E23" d="M48.353,27.982l-2.69-1.091l-3.68,18.319c-0.336,0.93,0.044,1.979,0.851,2.346
				c0.806,0.366,1.731-0.092,2.067-1.021l6.143-17.46L48.353,27.982z"/>
			<path fill="#5B0D0D" d="M43.409,47.96L43.409,47.96c-0.237,0-0.47-0.052-0.69-0.151c-0.928-0.421-1.374-1.615-1.003-2.672
				l3.741-18.628l5.935,2.409l-0.089,0.249l-6.141,17.46C44.869,47.437,44.182,47.96,43.409,47.96z M45.868,27.273l-3.625,18.031
				c-0.288,0.797,0.028,1.693,0.704,2c0.148,0.067,0.305,0.102,0.462,0.102c0.536,0,1.02-0.379,1.231-0.965l6.053-17.209
				L45.868,27.273z"/>
		</g>
		<g>
			<path fill="#AC1E23" d="M53.814,45.425l-2.35-17.873V24.95h-5.77v2.916c0,0.327,0.048,0.641,0.134,0.935l0,0
				c0.046,0.154,0.101,0.302,0.167,0.443l4.826,17.34c0.278,0.947,1.176,1.456,2.002,1.135
				C53.65,47.399,54.094,46.371,53.814,45.425"/>
			<path fill="#5B0D0D" d="M52.318,48.092L52.318,48.092c-0.803,0-1.51-0.574-1.762-1.43l-4.82-17.322
				c-0.063-0.138-0.119-0.284-0.164-0.437l-0.009-0.024c-0.097-0.329-0.146-0.67-0.146-1.013v-3.192h6.324v2.878l2.345,17.816
				c0.306,1.074-0.213,2.241-1.163,2.609C52.729,48.054,52.523,48.092,52.318,48.092z M46.09,28.708l0.005,0.015
				c0.042,0.143,0.093,0.277,0.152,0.403l0.016,0.043l4.825,17.341c0.182,0.613,0.676,1.029,1.23,1.029l0,0
				c0.137,0,0.273-0.026,0.405-0.077c0.694-0.27,1.065-1.147,0.825-1.959l-0.008-0.042l-2.35-17.874l-0.003-2.359h-5.217v2.639
				C45.972,28.151,46.012,28.434,46.09,28.708z"/>
		</g>
		<g>
			<path fill="#D8414C" d="M48.732,9.109h-0.07c-1.893,0-3.427,1.759-3.427,3.93v11.974h6.925V13.039
				C52.16,10.868,50.625,9.109,48.732,9.109"/>
			<path fill="#5B0D0D" d="M52.437,25.29h-7.479V13.039c0-2.319,1.662-4.206,3.704-4.206h0.07c2.042,0,3.704,1.887,3.704,4.206
				V25.29z M45.512,24.736h6.371V13.039c0-2.014-1.414-3.653-3.15-3.653h-0.07c-1.736,0-3.15,1.64-3.15,3.653V24.736z"/>
		</g>
		<g>
			<path fill="#E58890" d="M48.726,9.61h-0.057c-1.534,0-2.778-1.427-2.778-3.185V4.662c0-1.758,1.244-3.185,2.778-3.185h0.057
				c1.534,0,2.778,1.427,2.778,3.185v1.764C51.504,8.184,50.26,9.61,48.726,9.61"/>
			<path fill="#5B0D0D" d="M48.726,9.887h-0.057c-1.685,0-3.055-1.553-3.055-3.461V4.662c0-1.908,1.37-3.462,3.055-3.462h0.057
				c1.685,0,3.055,1.554,3.055,3.462v1.764C51.78,8.334,50.41,9.887,48.726,9.887z M48.669,1.754c-1.379,0-2.502,1.305-2.502,2.908
				v1.764c0,1.603,1.123,2.907,2.502,2.907h0.057c1.379,0,2.501-1.305,2.501-2.907V4.662c0-1.604-1.122-2.908-2.501-2.908H48.669z"
				/>
		</g>
		<g>
			<polygon fill="#AC1E23" points="50.969,10.669 46.697,9.833 47.281,8.992 50.387,8.992 			"/>
			<path fill="#5B0D0D" d="M51.388,11.033l-5.159-1.01l0.907-1.308h3.446L51.388,11.033z M47.166,9.643l3.383,0.662L50.189,9.27
				h-2.765L47.166,9.643z"/>
		</g>
		<g>
			<path fill="#AC1E23" d="M48.369,4.29c0,0,2.059-0.083,2.807-0.459s1.275-0.836,0.328-3.134c-0.984,2.173-5.613-1.42-5.613,1.965
				c-0.655,0.333-0.734,3.353,0,4.637C46.511,7.341,48.441,7.652,48.369,4.29L48.369,4.29z"/>
			<path fill="#5B0D0D" d="M46.369,7.602L46.369,7.602c-0.156,0-0.296-0.011-0.41-0.02l-0.235-0.018L45.65,7.437
				c-0.612-1.069-0.702-3.184-0.373-4.287c0.087-0.29,0.199-0.498,0.339-0.63c0.043-1.124,0.602-1.671,1.706-1.671
				c0.439,0,0.932,0.083,1.408,0.162C49.195,1.09,49.677,1.17,50.09,1.17c0.619,0,0.979-0.181,1.162-0.587L51.516,0l0.244,0.592
				c0.93,2.256,0.536,2.986-0.46,3.486c-0.632,0.317-2.056,0.438-2.652,0.475c-0.013,1.138-0.267,1.968-0.76,2.473
				C47.508,7.413,47.012,7.602,46.369,7.602z M46.064,7.035c0.089,0.006,0.193,0.013,0.305,0.013l0,0
				c0.484,0,0.853-0.134,1.122-0.409c0.423-0.433,0.626-1.221,0.602-2.342l-0.006-0.272l0.271-0.011
				c0.557-0.022,2.125-0.144,2.694-0.43c0.528-0.266,1.03-0.518,0.382-2.306c-0.309,0.299-0.753,0.445-1.344,0.445
				c-0.46,0-0.964-0.084-1.451-0.167c-0.476-0.08-0.924-0.154-1.316-0.154c-0.693,0-1.155,0.213-1.155,1.26v0.17l-0.151,0.076
				c-0.004,0.002-0.105,0.058-0.207,0.399C45.53,4.237,45.602,6.078,46.064,7.035z"/>
		</g>
		<g>
			<g>
				<path fill="#E58890" d="M43.617,25.187c-0.191,1.019-0.98,1.644-1.764,1.395c-0.781-0.248-1.262-1.275-1.07-2.295
					c0.19-1.019,0.979-1.644,1.762-1.396C43.328,23.14,43.807,24.167,43.617,25.187"/>
				<path fill="#5B0D0D" d="M42.201,26.912c-0.145,0-0.289-0.021-0.431-0.066c-0.91-0.29-1.476-1.46-1.26-2.61
					c0.185-0.987,0.879-1.676,1.688-1.676c0.146,0,0.29,0.022,0.431,0.067c0.91,0.29,1.476,1.46,1.26,2.609
					C43.704,26.224,43.01,26.912,42.201,26.912z M42.198,23.113c-0.538,0-1.008,0.503-1.144,1.224
					c-0.162,0.87,0.242,1.777,0.883,1.981c0.623,0.198,1.25-0.346,1.408-1.184c0.162-0.869-0.243-1.775-0.884-1.98
					C42.375,23.127,42.286,23.113,42.198,23.113z"/>
			</g>
			<g>
				<g>
					<path fill="#D8414C" d="M45.574,12.188l-3.096,3.914l0.002,0.001c-0.146,0.219-0.256,0.485-0.312,0.786l-1.385,7.397l2.834,0.9
						l1.302-6.956l2.681-4.066L45.574,12.188z"/>
				</g>
				<g>
					<path fill="#5B0D0D" d="M47.281,14.184l-2.604,3.949l-1.26,6.723l-2.342-0.744l1.344-7.176
						c0.048-0.255,0.143-0.494,0.273-0.691l2.881-4.057l-0.038-0.831l-3.267,4.597l-0.151,0.216l0.02,0.014
						c-0.102,0.202-0.178,0.427-0.221,0.658l-1.427,7.62l3.324,1.057l1.348-7.188l2.756-4.185L47.281,14.184z"/>
				</g>
			</g>
		</g>
	</g>
</g>
</svg>
