<?xml version="1.0" encoding="utf-8"?>
<!-- Generator: Adobe Illustrator 15.0.0, SVG Export Plug-In . SVG Version: 6.00 Build 0)  -->
<!DOCTYPE svg PUBLIC "-//W3C//DTD SVG 1.1//EN" "http://www.w3.org/Graphics/SVG/1.1/DTD/svg11.dtd">
<svg version="1.1" id="Layer_1" xmlns="http://www.w3.org/2000/svg" xmlns:xlink="http://www.w3.org/1999/xlink" x="0px" y="0px"
	 width="70.101px" height="121.386px" viewBox="0 0 70.101 121.386" enable-background="new 0 0 70.101 121.386"
	 xml:space="preserve">
<g>
	<g>
		<path fill="#E58890" d="M52.341,37.118c2.276-0.414,4.653,1.062,5.312,3.295c0.657,2.232-0.654,4.375-2.932,4.787
			c-2.276,0.413-4.653-1.062-5.311-3.294C48.754,39.673,50.066,37.53,52.341,37.118"/>
		<path fill="#5B0D0D" d="M53.948,46.019c-2.38,0-4.59-1.641-5.256-3.901c-0.38-1.292-0.219-2.603,0.453-3.693
			c0.667-1.082,1.755-1.808,3.062-2.044c0.298-0.054,0.604-0.082,0.909-0.082c2.378,0,4.589,1.641,5.257,3.902
			c0.38,1.292,0.219,2.603-0.453,3.692c-0.667,1.082-1.756,1.808-3.064,2.045C54.558,45.992,54.253,46.019,53.948,46.019z
			 M53.117,37.798c-0.216,0-0.432,0.02-0.642,0.058c-0.884,0.16-1.612,0.642-2.054,1.356c-0.445,0.723-0.549,1.604-0.29,2.482
			c0.542,1.841,2.564,3.109,4.457,2.768c0.885-0.16,1.614-0.642,2.056-1.357c0.445-0.722,0.549-1.603,0.29-2.48
			C56.451,38.987,54.845,37.798,53.117,37.798z"/>
	</g>
	<g>
		<polygon fill="#D8414C" points="35.823,40.111 38.203,48.192 54.722,45.2 52.341,37.118 		"/>
		<path fill="#5B0D0D" d="M37.673,49.05l-2.806-9.528l18.003-3.262l2.807,9.529L37.673,49.05z M36.778,40.7l1.954,6.634
			l15.035-2.724l-1.955-6.635L36.778,40.7z"/>
	</g>
	<g>
		<path fill="#AC1E23" d="M26.38,64.807l-6.592-3.969L3.255,113.009c-1.23,2.604-0.637,5.771,1.325,7.069
			c1.961,1.301,4.546,0.246,5.773-2.358l22.619-48.948L26.38,64.807z"/>
		<path fill="#5B0D0D" d="M6.4,121.386C6.399,121.386,6.399,121.386,6.4,121.386c-0.789,0-1.562-0.236-2.234-0.683
			c-2.245-1.486-2.962-5.052-1.61-7.968l16.806-53.03l14.575,8.771l-22.901,49.559C10.06,120.103,8.285,121.386,6.4,121.386z
			 M20.216,61.971L3.933,113.33c-1.075,2.277-0.6,5.023,1.062,6.123c0.433,0.287,0.905,0.434,1.404,0.434
			c1.279,0,2.565-0.977,3.276-2.486L32.01,69.068L20.216,61.971z"/>
	</g>
	<g>
		<path fill="#AC1E23" d="M60.499,105.323c1.344,2.565,0.653,5.776-1.545,7.166c-2.193,1.395-5.063,0.443-6.408-2.125L41.039,87.53
			L20.425,75.654c-0.271-0.368-0.515-0.762-0.732-1.178l-0.003-0.003c-0.416-0.795-0.731-1.671-0.916-2.61l0.147-10.154
			l14.794-1.523l1.481,7.482l15.084,13.717L60.499,105.323L60.499,105.323z"/>
		<path fill="#5B0D0D" d="M56.767,113.881c-1.99,0-3.862-1.215-4.886-3.17L40.47,88.068L19.915,76.225l-0.093-0.126
			c-0.266-0.361-0.515-0.755-0.738-1.172l-0.002-0.002l-0.056-0.104c-0.462-0.882-0.795-1.829-0.988-2.813l-0.015-0.077
			l0.158-10.899l16.137-1.662l1.566,7.91l15.022,13.66l0.063,0.15l10.218,23.939c1.495,2.848,0.684,6.503-1.834,8.094
			C58.575,113.619,57.679,113.881,56.767,113.881z M20.939,75.084l20.668,11.907l11.608,23.035c0.759,1.447,2.121,2.354,3.552,2.354
			c0.636,0,1.236-0.177,1.784-0.525c1.874-1.185,2.449-3.959,1.283-6.185L49.655,81.83L34.509,68.056l-1.396-7.055l-13.451,1.385
			l-0.137,9.407c0.162,0.79,0.429,1.55,0.793,2.261l0.039,0.074C20.536,74.468,20.731,74.789,20.939,75.084z"/>
	</g>
	<g>
		<path fill="#D8414C" d="M36.938,21.631l-0.183-0.042c-4.999-1.154-10.124,2.554-11.448,8.286l-7.305,31.62l18.286,4.224
			l7.304-31.62C44.917,28.368,41.938,22.787,36.938,21.631"/>
		<path fill="#5B0D0D" d="M36.85,66.619l-19.747-4.561l7.474-32.351c1.215-5.26,5.561-9.078,10.334-9.078
			c0.676,0,1.354,0.077,2.014,0.229l0.182,0.042c2.634,0.608,4.832,2.347,6.192,4.896c1.343,2.515,1.706,5.523,1.024,8.472
			L36.85,66.619z M18.902,60.934l16.825,3.886l7.135-30.89c0.6-2.595,0.285-5.233-0.887-7.428c-1.153-2.161-3.002-3.631-5.206-4.14
			l-0.182-0.042c-0.551-0.127-1.114-0.191-1.677-0.191c-4.082,0-7.813,3.329-8.873,7.916L18.902,60.934z"/>
	</g>
	<g>
		<path fill="#E58890" d="M38.486,22.778l-0.152-0.009c-4.152-0.217-7.319-4.252-7.07-9.013l0.249-4.771
			c0.249-4.761,3.816-8.443,7.97-8.227l0.152,0.007c4.153,0.217,7.317,4.252,7.069,9.012l-0.248,4.772
			C46.208,19.309,42.64,22.994,38.486,22.778"/>
		<path fill="#5B0D0D" d="M38.833,23.537c-0.128,0-0.257-0.003-0.386-0.01l-0.156-0.009c-2.225-0.116-4.262-1.213-5.732-3.088
			c-1.448-1.845-2.174-4.229-2.044-6.712l0.249-4.771c0.271-5.163,4.145-9.178,8.758-8.937l0.146,0.007
			c4.564,0.238,8.055,4.634,7.785,9.8l-0.248,4.772C46.943,19.606,43.266,23.537,38.833,23.537z M39.133,1.5
			c-3.633,0-6.651,3.306-6.872,7.525l-0.249,4.771c-0.111,2.121,0.502,4.148,1.726,5.708c1.2,1.529,2.846,2.423,4.635,2.516
			l0.156,0.009c0.099,0.005,0.202,0.007,0.304,0.007c3.635,0,6.654-3.305,6.874-7.525l0.248-4.772
			c0.227-4.34-2.627-8.029-6.359-8.224l-0.146-0.007C39.339,1.503,39.236,1.5,39.133,1.5z"/>
	</g>
	<g>
		<g>
			<path fill="#E58890" d="M7.638,52.75c-1.96,2.016-4.68,2.241-6.071,0.506c-1.394-1.736-0.935-4.774,1.026-6.788
				c1.96-2.013,4.679-2.238,6.071-0.504C10.057,47.699,9.598,50.739,7.638,52.75"/>
			<path fill="#5B0D0D" d="M4.071,55.172c-1.243,0-2.34-0.514-3.089-1.448c-1.647-2.053-1.176-5.47,1.074-7.781
				c1.174-1.206,2.67-1.897,4.104-1.897c1.243,0,2.341,0.514,3.09,1.447c1.62,2.02,1.139,5.509-1.074,7.779
				C7.001,54.48,5.505,55.172,4.071,55.172z M6.16,45.547c-1.031,0-2.136,0.526-3.029,1.444c-1.701,1.748-2.141,4.347-0.979,5.795
				c0.588,0.732,1.368,0.886,1.919,0.886c1.032,0,2.137-0.527,3.029-1.446c1.674-1.717,2.122-4.37,0.979-5.794
				C7.492,45.701,6.711,45.547,6.16,45.547z"/>
		</g>
		<g>
			<g>
				<path fill="#D8414C" d="M31.56,26.351l-12.858,4.19l0.001,0.003c-0.657,0.277-1.304,0.714-1.882,1.306L2.593,46.467l5.045,6.282
					l13.376-13.742l12.153-5.155L31.56,26.351z"/>
			</g>
			<g>
				<path fill="#5B0D0D" d="M32.416,33.418l-11.8,5.006L7.689,51.706l-4.171-5.193l13.8-14.178c0.49-0.503,1.062-0.902,1.654-1.15
					l12.588-4.833l1.163-1.932l-14.271,5.476l-0.667,0.259l0.025,0.059c-0.533,0.303-1.039,0.695-1.487,1.155L1.669,46.423
					l5.919,7.373l13.827-14.205l12.503-5.304L32.416,33.418z"/>
			</g>
		</g>
	</g>
	<g>
		<path fill="#AC1E23" d="M43.426,8.832c-1.386-0.182-2.738-0.185-3.374,0.624c0,0-7.806-1.106-8.485-1.218
			c-1.257-3.035-5.58-2.051-5.58-2.051c0.476,1.064,1.115,1.815,1.776,2.353c-1.365,0.806-2.321,2.021-2.321,2.021
			c2.933,2.065,5.877-0.527,5.877-0.527l8.416,1.206c0.33,1.03,2.321,1.96,3.796,2.153c1.865,0.245,2.679-0.733,2.859-2.102
			C46.569,9.922,45.29,9.077,43.426,8.832z"/>
		<path fill="#5B0D0D" d="M44.079,14.18L44.079,14.18c-0.202,0-0.417-0.014-0.646-0.044c-1.338-0.175-3.428-0.98-4.197-2.211
			l-7.706-1.104c-0.574,0.422-1.957,1.288-3.647,1.288c-1.024,0-1.991-0.315-2.872-0.936l-0.646-0.456l0.488-0.622
			c0.034-0.043,0.697-0.878,1.718-1.654c-0.515-0.561-0.939-1.214-1.268-1.949l-0.373-0.834l0.891-0.203
			c0.031-0.007,0.763-0.171,1.725-0.171c2.144,0,3.733,0.802,4.527,2.271c1.476,0.218,6.322,0.907,7.711,1.104
			c0.538-0.455,1.307-0.677,2.333-0.677c0.408,0,0.868,0.034,1.408,0.105c2.45,0.322,3.834,1.587,3.61,3.3
			C46.9,13.163,45.786,14.18,44.079,14.18z M31.083,9.243l9.223,1.32l0.143,0.447c0.181,0.562,1.714,1.446,3.18,1.639
			c0.159,0.021,0.309,0.031,0.45,0.031c0.639,0,1.394-0.169,1.568-1.487c0.156-1.197-1.735-1.541-2.318-1.617
			c-1.513-0.199-2.355-0.078-2.687,0.344l-0.268,0.34l-0.428-0.061c-0.318-0.045-7.821-1.109-8.501-1.22l-0.412-0.067l-0.16-0.386
			c-0.478-1.155-1.598-1.74-3.329-1.74c-0.128,0-0.252,0.003-0.368,0.009c0.3,0.445,0.654,0.834,1.06,1.164l0.837,0.68l-0.929,0.548
			c-0.611,0.36-1.134,0.814-1.507,1.18c0.399,0.162,0.816,0.243,1.245,0.243c1.611,0,2.93-1.129,2.942-1.141L31.083,9.243z"/>
	</g>
	<g>
		<g>
			<path fill="#AC1E23" d="M55.573,41.343l2.496-5.699l-11.666,2.854l5.33,4.294c-4.104,8.31-13.271,33.784,8.654,28.42
				C80.83,66.211,60.598,46.011,55.573,41.343z"/>
			<path fill="#5B0D0D" d="M55.009,72.698c-0.001,0-0.001,0-0.002,0c-3.684-0.001-6.34-1.269-7.894-3.77
				c-4.598-7.401,2.209-22.782,3.686-25.924l-6.049-4.873l14.614-3.576l-2.892,6.603c5.017,4.721,15.429,15.689,13.359,23.651
				c-0.896,3.447-4.015,5.847-9.268,7.132C58.513,72.443,56.644,72.698,55.009,72.698z M48.055,38.866l4.616,3.719l-0.266,0.539
				c-2.996,6.065-7.691,19.098-4.018,25.012c1.279,2.06,3.444,3.061,6.619,3.062c0.001,0,0.002,0,0.002,0
				c1.515,0,3.264-0.24,5.199-0.714c4.676-1.144,7.426-3.18,8.172-6.052c1.976-7.6-9.694-19.173-13.318-22.539l-0.39-0.362
				l2.101-4.797L48.055,38.866z"/>
		</g>
		<g>
			<g>
				<path fill="#FFFFFF" d="M59.97,60.573c-0.072-0.263-0.169-0.486-0.293-0.668c-0.123-0.183-0.285-0.334-0.487-0.455
					c-0.201-0.119-0.444-0.217-0.729-0.287c-0.286-0.072-0.625-0.125-1.019-0.159c-0.68-0.066-1.304-0.158-1.875-0.276
					c-0.571-0.119-1.08-0.295-1.529-0.532c-0.447-0.235-0.832-0.55-1.15-0.941c-0.318-0.393-0.562-0.897-0.728-1.513
					c-0.145-0.533-0.188-1.044-0.132-1.531c0.057-0.487,0.204-0.938,0.442-1.354s0.56-0.787,0.959-1.113
					c0.399-0.328,0.874-0.596,1.424-0.807l-0.545-2.016l1.507-0.407l0.553,2.044c0.562-0.07,1.093-0.05,1.596,0.063
					c0.502,0.114,0.957,0.314,1.365,0.6c0.408,0.288,0.765,0.663,1.067,1.123c0.304,0.46,0.54,1.005,0.71,1.634l-2.722,0.735
					c-0.204-0.754-0.514-1.273-0.926-1.563c-0.411-0.29-0.878-0.363-1.399-0.223c-0.282,0.075-0.516,0.184-0.695,0.324
					c-0.181,0.14-0.317,0.303-0.409,0.485c-0.093,0.184-0.143,0.385-0.152,0.603c-0.008,0.217,0.02,0.444,0.082,0.675
					c0.063,0.233,0.152,0.435,0.266,0.606c0.114,0.171,0.269,0.315,0.467,0.434s0.441,0.214,0.735,0.287
					c0.291,0.073,0.647,0.133,1.064,0.182c0.675,0.08,1.298,0.182,1.867,0.305c0.569,0.121,1.079,0.303,1.527,0.541
					c0.448,0.24,0.833,0.556,1.151,0.947c0.318,0.393,0.561,0.894,0.725,1.503c0.15,0.552,0.195,1.072,0.135,1.562
					c-0.061,0.487-0.209,0.937-0.45,1.345c-0.239,0.409-0.563,0.772-0.973,1.093s-0.888,0.585-1.438,0.794l0.508,1.874l-1.499,0.406
					l-0.505-1.865c-0.537,0.084-1.073,0.099-1.61,0.043c-0.537-0.058-1.044-0.212-1.516-0.465c-0.474-0.254-0.896-0.619-1.27-1.098
					c-0.372-0.479-0.659-1.097-0.864-1.851l2.724-0.736c0.12,0.445,0.279,0.804,0.476,1.068c0.198,0.269,0.418,0.464,0.66,0.591
					c0.243,0.126,0.499,0.191,0.767,0.197c0.268,0.005,0.53-0.027,0.788-0.097c0.295-0.081,0.543-0.191,0.744-0.333
					c0.2-0.142,0.356-0.306,0.468-0.491c0.113-0.185,0.18-0.388,0.2-0.605C60.053,61.031,60.034,60.805,59.97,60.573z"/>
			</g>
		</g>
	</g>
</g>
</svg>
