<?xml version="1.0" encoding="utf-8"?>
<!-- Generator: Adobe Illustrator 15.0.0, SVG Export Plug-In . SVG Version: 6.00 Build 0)  -->
<!DOCTYPE svg PUBLIC "-//W3C//DTD SVG 1.1//EN" "http://www.w3.org/Graphics/SVG/1.1/DTD/svg11.dtd">
<svg version="1.1" id="Layer_1" xmlns="http://www.w3.org/2000/svg" xmlns:xlink="http://www.w3.org/1999/xlink" x="0px" y="0px"
	 width="57.171px" height="130.336px" viewBox="0 0 57.171 130.336" enable-background="new 0 0 57.171 130.336"
	 xml:space="preserve">
<g>
	<g>
		<g>
			<path fill="#E58890" d="M54.796,57.936c1.773,1.484,2.161,4.255,0.869,6.19c-1.295,1.934-3.781,2.297-5.556,0.812
				c-1.774-1.486-2.162-4.257-0.868-6.19C50.535,56.815,53.023,56.451,54.796,57.936"/>
			<path fill="#5B0D0D" d="M52.548,66.602c-1.06,0-2.069-0.376-2.92-1.088c-2.056-1.722-2.509-4.943-1.01-7.183
				c0.876-1.309,2.239-2.059,3.741-2.059c1.059,0,2.068,0.376,2.918,1.088c2.054,1.719,2.508,4.94,1.012,7.182
				C55.412,65.852,54.049,66.602,52.548,66.602z M52.359,57.772c-0.993,0-1.902,0.508-2.495,1.393
				c-1.085,1.622-0.759,3.954,0.727,5.198c0.577,0.483,1.254,0.738,1.957,0.738c0.992,0,1.901-0.508,2.494-1.393
				c1.083-1.623,0.757-3.956-0.728-5.198C53.738,58.027,53.062,57.772,52.359,57.772z"/>
		</g>
		<g>
			<polygon fill="#D8414C" points="41.923,47.159 37.236,54.159 50.109,64.938 54.796,57.936 			"/>
			<path fill="#5B0D0D" d="M50.269,66.049l-14.03-11.747l5.525-8.254l14.03,11.745L50.269,66.049z M38.234,54.017l11.716,9.81
				l3.848-5.748l-11.716-9.808L38.234,54.017z"/>
		</g>
		<g>
			<path fill="#AC1E23" d="M34.839,75.838l-7.291-2.96l-9.973,49.648c-0.912,2.522,0.119,5.368,2.305,6.358
				c2.184,0.991,4.693-0.247,5.604-2.769l16.646-47.32L34.839,75.838z"/>
			<path fill="#5B0D0D" d="M21.441,129.977L21.441,129.977c-0.645,0-1.274-0.138-1.871-0.409c-2.514-1.139-3.726-4.378-2.72-7.242
				l10.141-50.482l16.083,6.527l-0.238,0.675l-16.646,47.32C25.398,128.562,23.534,129.977,21.441,129.977z M28.104,73.913
				l-9.824,48.868c-0.78,2.158,0.076,4.59,1.909,5.42c0.402,0.183,0.823,0.275,1.252,0.275c1.453,0,2.763-1.026,3.337-2.615
				l16.405-46.64L28.104,73.913z"/>
		</g>
		<g>
			<path fill="#AC1E23" d="M49.643,123.106l-6.368-48.439v-7.049H27.636v7.903c0,0.886,0.131,1.735,0.364,2.53l0.001,0.003
				c0.123,0.417,0.273,0.817,0.452,1.199l13.077,46.994c0.757,2.568,3.188,3.946,5.427,3.077
				C49.196,128.459,50.399,125.673,49.643,123.106"/>
			<path fill="#5B0D0D" d="M45.585,130.336L45.585,130.336c-2.173-0.001-4.091-1.558-4.774-3.876L27.747,79.514
				c-0.181-0.395-0.338-0.813-0.466-1.247c-0.263-0.896-0.396-1.817-0.396-2.745v-8.653h17.139v7.799l6.354,48.285
				c0.828,2.913-0.576,6.076-3.151,7.072C46.696,130.23,46.144,130.336,45.585,130.336z M28.386,68.368v7.153
				c0,0.784,0.112,1.564,0.334,2.319c0.113,0.384,0.252,0.752,0.413,1.095l0.043,0.117l13.077,46.994
				c0.49,1.663,1.83,2.789,3.332,2.789l0,0c0.372,0,0.742-0.071,1.101-0.21c1.883-0.729,2.886-3.109,2.237-5.308l-0.023-0.114
				l-6.368-48.439l-0.006-6.396H28.386z"/>
		</g>
		<g>
			<path fill="#AC1E23" d="M34.97,24.687h-0.172c-4.643,0-8.408,4.767-8.408,10.65v32.452h16.989V35.337
				C43.379,29.453,39.612,24.687,34.97,24.687"/>
			<path fill="#5B0D0D" d="M44.129,68.539H25.64V35.337c0-6.286,4.108-11.4,9.158-11.4h0.172c5.051,0,9.159,5.114,9.159,11.4V68.539
				z M27.14,67.039h15.489V35.337c0-5.459-3.436-9.9-7.659-9.9h-0.172c-4.223,0-7.658,4.441-7.658,9.9V67.039z"/>
		</g>
		<g>
			<path fill="#D8414C" d="M35.729,24.687H35.54c-5.129,0-9.289,4.767-9.289,10.65l-7.736,68.979h23.414v-64.01
				C41.929,34.423,40.858,24.687,35.729,24.687"/>
			<path fill="#5B0D0D" d="M42.679,105.065H17.676l7.83-69.812c-0.005-6.202,4.499-11.316,10.034-11.316h0.188
				c6.449,0,6.95,12.529,6.95,16.369V105.065z M19.354,103.565h21.825v-63.26c0-6.859-1.428-14.869-5.45-14.869H35.54
				c-4.708,0-8.539,4.441-8.539,9.9L19.354,103.565z"/>
		</g>
		<g>
			<path fill="#E58890" d="M35.849,26.044h-0.151c-4.159,0-7.531-3.866-7.531-8.631v-4.778c0-4.767,3.372-8.632,7.531-8.632h0.151
				c4.159,0,7.53,3.865,7.53,8.632v4.778C43.379,22.178,40.008,26.044,35.849,26.044"/>
			<path fill="#5B0D0D" d="M35.849,26.794h-0.151c-4.566,0-8.281-4.208-8.281-9.381v-4.778c0-5.173,3.715-9.382,8.281-9.382h0.151
				c4.565,0,8.28,4.209,8.28,9.382v4.778C44.129,22.586,40.414,26.794,35.849,26.794z M35.697,4.753
				c-3.739,0-6.781,3.536-6.781,7.882v4.778c0,4.346,3.042,7.881,6.781,7.881h0.151c3.738,0,6.78-3.535,6.78-7.881v-4.778
				c0-4.346-3.042-7.882-6.78-7.882H35.697z"/>
		</g>
		<g>
			<polygon fill="#D8414C" points="41.163,32.002 30.353,26.647 31.933,24.368 40.402,26.044 			"/>
			<path fill="#5B0D0D" d="M42.084,33.295l-12.843-6.361l2.354-3.396l9.482,1.876L42.084,33.295z M31.464,26.361l8.778,4.348
				l-0.516-4.034l-7.457-1.476L31.464,26.361z"/>
		</g>
		<g>
			<path fill="#AC1E23" d="M34.885,11.627c0,0,5.577-0.228,7.604-1.246s3.459-2.264,0.891-8.492
				c-2.668,5.889-15.214-3.848-15.214,5.323c-1.775,0.905-1.991,9.087,0,12.568C29.847,19.894,35.081,20.735,34.885,11.627
				L34.885,11.627z"/>
			<path fill="#5B0D0D" d="M29.462,20.601L29.462,20.601c-0.422,0-0.801-0.029-1.108-0.054l-0.639-0.045l-0.2-0.35
				c-1.656-2.896-1.902-8.623-1.009-11.618c0.234-0.786,0.537-1.35,0.917-1.705c0.115-3.049,1.63-4.532,4.622-4.532
				c1.191,0,2.526,0.226,3.817,0.442c1.261,0.212,2.564,0.432,3.685,0.432c1.68,0,2.651-0.491,3.149-1.592L43.412,0l0.661,1.603
				c2.521,6.112,1.451,8.093-1.247,9.448c-1.712,0.86-5.573,1.186-7.188,1.286c-0.032,3.083-0.725,5.336-2.062,6.701
				C32.549,20.09,31.202,20.601,29.462,20.601z M28.637,19.064c0.241,0.019,0.521,0.036,0.825,0.036l0,0
				c1.316,0,2.312-0.363,3.043-1.111c1.147-1.172,1.695-3.307,1.63-6.346l-0.016-0.736l0.735-0.029
				c1.507-0.062,5.755-0.392,7.298-1.167c1.433-0.72,2.792-1.402,1.036-6.246c-0.837,0.81-2.041,1.206-3.642,1.206
				c-1.246,0-2.612-0.229-3.934-0.452c-1.287-0.217-2.503-0.422-3.568-0.422c-1.878,0-3.129,0.581-3.129,3.415v0.459L28.507,7.88
				c-0.012,0.006-0.287,0.155-0.563,1.083C27.191,11.484,27.385,16.473,28.637,19.064z"/>
		</g>
		<g>
			<g>
				<rect x="0.75" y="76.436" fill="#AC1E23" width="34.516" height="23.953"/>
				<path fill="#5B0D0D" d="M36.016,101.139H0V75.686h36.016V101.139z M1.5,99.639h33.016V77.186H1.5V99.639z"/>
			</g>
			<g>
				<polygon fill="#AC1E23" points="11.188,68.146 11.188,76.436 14.193,76.436 14.193,71.342 21.821,71.342 21.821,76.436 
					24.825,76.436 24.825,68.146 				"/>
				<path fill="#5B0D0D" d="M25.575,77.186h-4.504v-5.094h-6.128v5.094h-4.505v-9.79h15.137V77.186z M22.571,75.686h1.504v-6.79
					H11.938v6.79h1.505v-5.094h9.128V75.686z"/>
			</g>
		</g>
		<g>
			<g>
				<path fill="#E58890" d="M22.004,68.257c-0.518,2.763-2.656,4.456-4.776,3.782c-2.121-0.674-3.422-3.459-2.903-6.221
					c0.517-2.762,2.654-4.455,4.776-3.781C21.221,62.711,22.521,65.496,22.004,68.257"/>
				<path fill="#5B0D0D" d="M18.167,72.937c-0.392,0-0.784-0.062-1.167-0.183c-2.467-0.784-3.998-3.957-3.413-7.074
					c0.5-2.673,2.381-4.54,4.573-4.54c0.393,0,0.785,0.062,1.167,0.183c2.466,0.783,3.997,3.956,3.414,7.072
					C22.24,71.069,20.359,72.937,18.167,72.937z M18.16,62.64c-1.459,0-2.733,1.363-3.099,3.316
					c-0.442,2.357,0.653,4.815,2.394,5.368c1.675,0.537,3.386-0.935,3.812-3.205c0.441-2.357-0.655-4.814-2.394-5.367
					C18.638,62.677,18.398,62.64,18.16,62.64z"/>
			</g>
			<g>
				<g>
					<path fill="#D8414C" d="M27.308,33.028l-8.389,10.609l0.003,0.002c-0.394,0.594-0.69,1.315-0.844,2.13l-3.754,20.049
						l7.68,2.438l3.53-18.85l7.264-11.021L27.308,33.028z"/>
				</g>
				<g>
					<path fill="#5B0D0D" d="M31.933,38.439l-7.055,10.703l-3.412,18.216l-6.347-2.015l3.641-19.447
						c0.13-0.69,0.386-1.339,0.74-1.874l7.808-10.994l-0.102-2.252l-8.853,12.459l-0.41,0.586l0.053,0.035
						c-0.277,0.548-0.481,1.154-0.6,1.785L13.53,66.293l9.01,2.862l3.649-19.483l7.475-11.341L31.933,38.439z"/>
				</g>
			</g>
		</g>
		<g>
			<polygon fill="#FFFFFF" points="24.599,85.374 20.279,85.374 20.279,81.056 14.205,81.056 14.205,85.374 9.886,85.374 
				9.886,91.449 14.205,91.449 14.205,95.769 20.279,95.769 20.279,91.449 24.599,91.449 			"/>
		</g>
	</g>
	<g>
		<path fill="#E58890" d="M37.409,13.406v0.613h-5.305v1.004h5.305v1.618c2.756,2.02,5.97,0,5.97,0v-3.235H37.409z"/>
		<path fill="#5B0D0D" d="M40.182,18.289L40.182,18.289c-1.189,0-2.271-0.351-3.216-1.043l-0.307-0.225v-1.248h-5.305V13.27h5.305
			v-0.613h7.47v4.399l-0.351,0.221C43.712,17.318,42.145,18.289,40.182,18.289z M38.159,16.24c0.606,0.364,1.285,0.549,2.022,0.549
			c1.038,0,1.965-0.365,2.447-0.597v-2.036h-4.47V16.24z"/>
	</g>
</g>
</svg>
