<?xml version="1.0" encoding="utf-8"?>
<!-- Generator: Adobe Illustrator 15.0.0, SVG Export Plug-In . SVG Version: 6.00 Build 0)  -->
<!DOCTYPE svg PUBLIC "-//W3C//DTD SVG 1.1//EN" "http://www.w3.org/Graphics/SVG/1.1/DTD/svg11.dtd">
<svg version="1.1" id="Layer_1" xmlns="http://www.w3.org/2000/svg" xmlns:xlink="http://www.w3.org/1999/xlink" x="0px" y="0px"
	 width="80.532px" height="56.961px" viewBox="0 0 80.532 56.961" enable-background="new 0 0 80.532 56.961" xml:space="preserve">
<g>
	<g>
		<g>
			<path fill="#AC1E23" d="M46.646,33.764c0,0-2.784,3.204-2.645,8.342c0.139,5.141-3.411,7.673-3.411,7.673
				s-4.177,1.936-4.317,3.129c-0.138,1.192-0.555,2.829,1.811,2.011c2.367-0.818,5.849-3.949,6.614-5.14s3.341-8.641,4.245-9.386
				C49.848,39.648,61.125,31.754,46.646,33.764z"/>
			<path fill="#5B0D0D" d="M37.027,55.889L37.027,55.889c-0.644,0-1.017-0.271-1.216-0.499c-0.537-0.611-0.421-1.497-0.319-2.277
				l0.037-0.291c0.163-1.383,2.966-2.893,4.676-3.69c0.418-0.322,3.166-2.613,3.049-7.005c-0.146-5.368,2.706-8.715,2.828-8.854
				l0.184-0.212l0.279-0.039c1.594-0.221,2.96-0.333,4.058-0.333c1.498,0,3.546,0.167,4.033,1.61
				c0.638,1.89-2.116,4.309-4.895,6.427c-0.148,0.113-0.26,0.197-0.321,0.247c-0.426,0.419-1.674,3.526-2.42,5.383
				c-0.818,2.036-1.336,3.311-1.67,3.829c-0.834,1.297-4.445,4.561-7,5.443C37.82,55.803,37.394,55.889,37.027,55.889z
				 M36.945,54.386c0.016,0,0.044,0.003,0.082,0.003l0,0c0.134,0,0.383-0.031,0.812-0.18c2.153-0.744,5.498-3.7,6.229-4.836
				c0.273-0.426,0.918-2.028,1.539-3.577c1.48-3.684,2.244-5.475,2.859-5.982c0.07-0.058,0.196-0.153,0.365-0.282
				c4.532-3.455,4.445-4.565,4.383-4.753c-0.074-0.22-0.708-0.591-2.612-0.591c-0.962,0-2.155,0.094-3.553,0.278
				c-0.569,0.768-2.407,3.571-2.298,7.619c0.148,5.477-3.566,8.191-3.725,8.304l-0.12,0.07c-1.922,0.892-3.741,2.087-3.892,2.557
				l-0.035,0.291c-0.041,0.315-0.116,0.892-0.044,1.08C36.937,54.386,36.94,54.386,36.945,54.386z"/>
		</g>
		<g>
			<path fill="#AC1E23" d="M18.869,33.438c0,0,8.981,5.764,3.064,12.468c-0.715,0.648,4.845,5.089,8.354,9.231
				c0.381,0.216,3.271,0.822,4.037-0.369c0.766-1.192-1.6-1.639-2.574-1.714c-0.697-0.894-5.976-7.316-5.078-8.536
				c0.901-1.22,6.538-8.371,6.191-12.54C32.515,27.807,19.228,25.965,18.869,33.438z"/>
			<path fill="#5B0D0D" d="M32.368,56.234C32.368,56.234,32.368,56.234,32.368,56.234c-0.983,0-2.081-0.234-2.451-0.444
				l-0.203-0.168c-1.459-1.722-3.27-3.488-4.867-5.047c-2.828-2.76-3.741-3.721-3.727-4.533c0.005-0.27,0.114-0.516,0.309-0.691
				c1.358-1.545,1.957-3.217,1.721-4.909c-0.51-3.653-4.645-6.345-4.687-6.372l-0.365-0.233l0.021-0.434
				c0.206-4.285,4.053-5.812,7.583-5.812c3.709,0,7.682,1.618,7.907,4.326c0.233,2.811-1.762,6.977-6.101,12.734l-0.193,0.257
				c-0.008,0.297,0.287,1.736,4.768,7.363l0.055,0.069c0.838,0.1,2.459,0.415,2.943,1.388c0.13,0.263,0.288,0.8-0.128,1.446
				C34.644,55.658,33.942,56.234,32.368,56.234z M30.741,54.515c0.255,0.077,0.932,0.22,1.626,0.22h0
				c0.67,0,1.177-0.143,1.325-0.371c0.003-0.004,0.005-0.007,0.008-0.009c-0.233-0.211-1.097-0.481-2.009-0.552l-0.33-0.025
				l-0.451-0.573c-4.987-6.263-5.543-8.179-4.844-9.13l0.244-0.326c5.045-6.695,5.941-10.062,5.804-11.707
				c-0.128-1.544-3.185-2.951-6.412-2.951c-1.331,0-5.583,0.296-6.05,3.979c1.145,0.826,4.473,3.514,4.982,7.166
				c0.287,2.056-0.362,4.046-1.929,5.923c0.414,0.638,1.938,2.124,3.188,3.344C27.474,51.042,29.259,52.783,30.741,54.515z"/>
		</g>
		<g>
			<path fill="#D8414C" d="M72.991,16.336l-0.587-1.937c-0.535-0.799-8.332-3.249-8.868-2.28c-0.47,0.117-6.11,5.922-6.11,5.922
				l-13.202,2.047l0,0c-15.997,1.293-9.689-2.709-19.02-0.996c-0.389,0.073-0.77,0.162-1.14,0.269
				c-2.637-0.187-6.768-1.125-9.996-4.812c-3.372-5.561-0.35-13.404-0.42-13.778c-0.068-0.375-4.883,4.42-3.201,12.438
				c0.453,2.861,4.092,7.206,8.523,8.987c-4.646,4.07-6.473,10.518-6.575,11.106c-0.139,1.323-0.068,3.368-1.251,5.9
				c-1.185,2.531-3.964,2.36-4.307,3.459C6.492,43.759-0.065,54.1,0.835,54.619c3.055,2.756,5.435-3.054,6.132-4.249
				c0.694-1.196,2.507-4.764,7.586-6.772c5.081-2.012,7.448-7.45,8.216-11.174c9.258,5.289,20.239,6.141,20.239,6.141v-0.001
				c0.143,0.026,0.287,0.042,0.435,0.042h7.535c0.956,0.622,2.046,1.466,2.63,2.384c1.183,1.861,2.784,4.097,5.985,6.331
				c3.204,2.234,6.329,7.961,7.671,8.569c1.159,0.526,4.249,0.489,4.442-0.752c0.209-1.338-1.766-2.004-3.062-3.796
				c-1.512-2.085-9.074-7.904-9.536-11.47c-0.068-0.521-0.175-1.008-0.312-1.465c3.364-2.214,2.597-8.62,4.083-10.087l4.032-4.312
				h9.462c2.575,0,3.409-2.988,3.409-4.47L72.991,16.336z"/>
			<path fill="#5B0D0D" d="M69.177,56.961c-0.87,0-1.681-0.142-2.224-0.389c-0.721-0.327-1.486-1.32-2.891-3.194
				c-1.416-1.89-3.178-4.242-4.898-5.442c-3.209-2.239-4.871-4.469-6.189-6.544c-0.398-0.625-1.164-1.327-2.223-2.036h-7.31
				c-0.194,0-0.384-0.02-0.571-0.055l0.008-0.038c-2.301-0.018-11.666-1.444-19.608-5.704c-0.739,2.803-2.893,8.539-8.442,10.736
				c-4.564,1.805-6.334,4.91-7.09,6.236l-0.124,0.216c-0.079,0.136-0.18,0.333-0.302,0.57c-0.86,1.673-2.46,4.785-4.833,4.785
				c-0.727,0-1.433-0.298-2.101-0.885c-0.762-0.529-0.333-1.704,0.886-4.064c0.869-1.682,2.08-3.779,3.053-5.465
				c0.798-1.383,1.703-2.95,1.804-3.254c0.24-0.771,0.985-1.096,1.772-1.439c0.932-0.406,1.987-0.866,2.57-2.111
				c0.916-1.96,1.029-3.574,1.121-4.872c0.02-0.284,0.039-0.548,0.063-0.788c0.173-1.005,1.953-6.75,5.989-10.806
				c-4.259-2.121-7.482-6.251-7.932-9.093c-1.126-5.366,0.57-9.878,2.535-12.298C13.075,0,13.431,0,13.622,0h0.625l0.138,0.636
				c0.042,0.224-0.004,0.394-0.174,1.026c-0.536,1.992-2.163,8.038,0.464,12.442c2.944,3.329,6.661,4.289,9.312,4.498
				c0.351-0.097,0.71-0.179,1.077-0.248c1.661-0.305,2.9-0.446,3.902-0.446c1.494,0,2.289,0.325,3.131,0.669
				c1.114,0.456,2.501,1.022,6.504,1.022c1.559,0,3.43-0.087,5.561-0.26l12.9-2.002c4.094-4.207,5.438-5.409,5.955-5.774
				c0.385-0.418,1.044-0.418,1.279-0.418c1.929,0,7.995,1.74,8.729,2.837l0.095,0.199l0.49,1.618l6.92,3.264v0.476
				c0,2.167-1.291,5.22-4.159,5.22h-9.136l-3.811,4.074c-0.433,0.427-0.671,1.766-0.9,3.06c-0.416,2.334-0.926,5.199-2.873,6.812
				c0.084,0.35,0.15,0.708,0.199,1.07c0.283,2.193,4.045,5.791,6.534,8.171c1.315,1.258,2.354,2.252,2.865,2.956
				c0.469,0.648,1.062,1.155,1.586,1.602c0.885,0.756,1.8,1.536,1.61,2.751C72.282,56.322,71.059,56.961,69.177,56.961z
				 M22.243,31.26l0.898,0.513c9.007,5.146,19.816,6.036,19.926,6.044c0.172,0.027,0.273,0.039,0.376,0.039h7.758l0.187,0.121
				c1.352,0.879,2.311,1.758,2.854,2.61c1.235,1.944,2.791,4.03,5.781,6.118c1.919,1.338,3.762,3.798,5.242,5.774
				c0.849,1.133,1.905,2.544,2.31,2.728c0.34,0.154,0.97,0.254,1.604,0.254c1.202,0,1.772-0.333,1.788-0.438
				c0.058-0.368-0.359-0.745-1.102-1.378c-0.588-0.502-1.254-1.07-1.827-1.863c-0.431-0.594-1.477-1.594-2.687-2.752
				c-2.956-2.826-6.634-6.344-6.986-9.061c-0.061-0.462-0.156-0.915-0.287-1.345l-0.16-0.536l0.467-0.308
				c1.779-1.17,2.25-3.816,2.665-6.15c0.309-1.733,0.552-3.103,1.304-3.844l4.232-4.527h9.788c1.889,0,2.491-2.146,2.627-3.26
				l-6.63-3.127l-0.634-2.091c-0.711-0.51-5.481-2.136-7.438-2.136c-0.089,0-0.154,0.005-0.201,0.01l-0.062,0.112l-0.221,0.056
				c-0.578,0.42-3.384,3.202-5.85,5.74l-0.176,0.181l-13.449,2.085c-2.227,0.182-4.138,0.271-5.736,0.271
				c-4.298,0-5.836-0.629-7.072-1.134c-0.792-0.324-1.364-0.558-2.563-0.558c-0.897,0-2.084,0.138-3.628,0.421
				c-0.362,0.068-0.72,0.152-1.067,0.252l-0.128,0.037l-0.132-0.01c-2.953-0.209-7.172-1.257-10.508-5.065l-0.077-0.105
				c-2.141-3.529-1.863-7.869-1.316-10.854c-0.95,2.018-1.743,5.094-0.93,8.97c0.419,2.643,3.955,6.792,8.069,8.445l1.133,0.456
				l-0.918,0.805c-4.293,3.761-6.192,9.878-6.331,10.671c-0.017,0.174-0.034,0.42-0.052,0.687c-0.095,1.346-0.224,3.188-1.258,5.402
				c-0.823,1.758-2.271,2.39-3.329,2.851c-0.35,0.152-0.877,0.383-0.942,0.517c-0.132,0.42-0.722,1.449-1.935,3.552
				c-1.349,2.338-3.796,6.576-4.088,7.783c0.33,0.253,0.649,0.381,0.952,0.381c1.457,0,2.888-2.782,3.499-3.971
				c0.137-0.268,0.251-0.488,0.34-0.64l0.117-0.204c0.834-1.463,2.787-4.889,7.841-6.888c5.624-2.227,7.359-8.698,7.757-10.628
				L22.243,31.26z"/>
		</g>
	</g>
	<g>
		<path fill="#D8414C" d="M62.995,12.871c0,0-3.338,5.91-2.172,7.993c1.167,2.083,7.668,2.25,7.5-0.917
			c-0.07-1.33-0.443-5.563-1.25-7.158C66.612,11.876,63.707,11.965,62.995,12.871z"/>
		<path fill="#5B0D0D" d="M64.692,23.135C64.692,23.135,64.693,23.135,64.692,23.135c-1.594,0-3.736-0.499-4.523-1.904
			c-1.307-2.333,1.581-7.68,2.174-8.729l0.062-0.094c0.586-0.746,1.854-1.012,2.846-1.012c0.589,0,2.012,0.103,2.492,1.055
			c1.033,2.042,1.326,7.402,1.33,7.456c0.039,0.757-0.209,1.44-0.718,1.977C67.601,22.679,66.266,23.135,64.692,23.135z
			 M63.611,13.306c-1.291,2.308-2.788,6.022-2.134,7.192c0.363,0.647,1.746,1.137,3.215,1.137c1.147,0,2.109-0.293,2.574-0.783
			c0.229-0.24,0.326-0.516,0.309-0.865c-0.088-1.655-0.489-5.511-1.171-6.859c-0.057-0.059-0.446-0.23-1.153-0.23
			C64.432,12.896,63.797,13.125,63.611,13.306z"/>
	</g>
</g>
</svg>
