<?xml version="1.0" encoding="utf-8"?>
<!-- Generator: Adobe Illustrator 15.0.0, SVG Export Plug-In . SVG Version: 6.00 Build 0)  -->
<!DOCTYPE svg PUBLIC "-//W3C//DTD SVG 1.1//EN" "http://www.w3.org/Graphics/SVG/1.1/DTD/svg11.dtd">
<svg version="1.1" id="Layer_1" xmlns="http://www.w3.org/2000/svg" xmlns:xlink="http://www.w3.org/1999/xlink" x="0px" y="0px"
	 width="54.35px" height="49.148px" viewBox="0 0 54.35 49.148" enable-background="new 0 0 54.35 49.148" xml:space="preserve">
<g>
	<g>
		<g>
			<path fill="#DE8080" d="M51.95,37.438c0.474,0.59,1.255,0.604,1.743,0.034l0,0c0.49-0.57,0.503-1.51,0.029-2.1l-1.848-2.297
				l-1.848-2.298c-0.475-0.589-1.254-0.604-1.744-0.034l0,0c-0.489,0.571-0.502,1.51-0.028,2.1l1.849,2.298L51.95,37.438z"/>
			<path fill="#5B0D0D" d="M52.836,38.168L52.836,38.168c-0.416,0-0.818-0.202-1.102-0.556l-3.695-4.595
				c-0.561-0.699-0.546-1.777,0.035-2.453c0.284-0.332,0.663-0.516,1.066-0.516c0.417,0,0.818,0.203,1.103,0.556l3.695,4.596
				c0.562,0.699,0.546,1.776-0.034,2.453C53.619,37.985,53.24,38.168,52.836,38.168z M49.141,30.603
				c-0.239,0-0.469,0.115-0.646,0.322c-0.406,0.474-0.417,1.256-0.023,1.745l3.695,4.596c0.182,0.225,0.419,0.349,0.67,0.349l0,0
				c0.24,0,0.471-0.114,0.647-0.321c0.407-0.474,0.417-1.256,0.023-1.747l-3.695-4.594C49.631,30.727,49.393,30.603,49.141,30.603z"
				/>
		</g>
		<g>
			<path fill="#D8414C" d="M52.066,32.623l-2.024-2.537c-0.638-0.792-1.688-0.813-2.346-0.046l0,0
				c-0.657,0.767-0.674,2.03-0.038,2.822l2.027,2.538L52.066,32.623z"/>
			<path fill="#5B0D0D" d="M49.678,35.834l-2.235-2.799c-0.714-0.889-0.696-2.313,0.044-3.175c0.364-0.425,0.849-0.659,1.363-0.659
				c0.531,0,1.045,0.26,1.407,0.712l2.169,2.717L49.678,35.834z M48.85,29.755c-0.351,0-0.686,0.165-0.943,0.466
				c-0.574,0.669-0.589,1.776-0.031,2.469l1.817,2.277l2.015-2.35l-1.882-2.358C49.564,29.934,49.218,29.755,48.85,29.755z"/>
		</g>
		<g>
			<path fill="#E58890" d="M44.574,46.743c-0.211,0.887,0.215,1.811,0.951,2.064l0,0c0.735,0.253,1.504-0.26,1.714-1.146l1.19-5
				c0.21-0.887-0.216-1.811-0.952-2.065l0,0c-0.735-0.253-1.503,0.26-1.714,1.146L44.574,46.743z"/>
			<path fill="#5B0D0D" d="M45.906,49.148L45.906,49.148c-0.158,0-0.317-0.027-0.472-0.08c-0.864-0.298-1.372-1.37-1.13-2.39
				l1.189-5.001c0.199-0.838,0.857-1.423,1.603-1.423c0.159,0,0.317,0.026,0.472,0.079c0.865,0.3,1.372,1.372,1.13,2.391
				l-1.189,5.001C47.31,48.563,46.651,49.148,45.906,49.148z M47.097,40.809c-0.487,0-0.925,0.409-1.063,0.997l-1.19,5.001
				c-0.178,0.751,0.168,1.531,0.772,1.739c0.571,0.196,1.188-0.243,1.355-0.948l1.189-5.001c0.178-0.75-0.168-1.53-0.772-1.739
				C47.292,40.825,47.194,40.809,47.097,40.809z"/>
		</g>
		<g>
			<path fill="#E58890" d="M51.413,46.743c0.21,0.887-0.215,1.811-0.951,2.064l0,0c-0.735,0.253-1.503-0.259-1.714-1.146
				l-1.189-5.001c-0.211-0.887,0.216-1.811,0.951-2.064l0,0c0.736-0.254,1.504,0.259,1.714,1.146L51.413,46.743z"/>
			<path fill="#5B0D0D" d="M50.08,49.148c-0.743,0-1.402-0.584-1.602-1.422l-1.189-5.002c-0.242-1.02,0.266-2.091,1.131-2.39
				c0.153-0.053,0.312-0.079,0.472-0.079c0.743,0,1.401,0.584,1.601,1.422l1.19,5.002c0.241,1.019-0.265,2.091-1.13,2.389
				C50.398,49.121,50.24,49.148,50.08,49.148z M48.892,40.809c-0.098,0-0.196,0.017-0.292,0.05c-0.604,0.208-0.95,0.988-0.771,1.738
				l1.189,5.001c0.167,0.706,0.783,1.146,1.355,0.948c0.603-0.208,0.948-0.988,0.771-1.739l-1.19-5
				C49.814,41.219,49.377,40.809,48.892,40.809z"/>
		</g>
		<g>
			<path fill="#AC1E23" d="M45.352,38.565h5.197v4.196l-2.59,1.94c0,0-2.44-1.546-2.44-2.939S45.352,38.565,45.352,38.565z"/>
			<path fill="#5B0D0D" d="M47.973,45.037l-0.162-0.102c-0.104-0.066-2.568-1.644-2.568-3.173c0-1.365-0.165-3.154-0.166-3.172
				l-0.028-0.302h5.778v4.61L47.973,45.037z M45.652,38.842c0.048,0.577,0.143,1.87,0.143,2.921c0,0.941,1.433,2.109,2.154,2.602
				l2.324-1.741v-3.781H45.652z"/>
		</g>
		<g>
			<path fill="#D8414C" d="M50.549,38.565c0,0,1.07-7.73-1.59-9.46c-1.009-0.589-3.149,0.44-3.607,2.281
				c-0.46,1.842,0,6.296,0,7.179C46.972,38.565,50.549,38.565,50.549,38.565z"/>
			<path fill="#5B0D0D" d="M50.79,38.842h-5.716v-0.276c0-0.201-0.025-0.611-0.059-1.131c-0.109-1.746-0.293-4.668,0.067-6.114
				c0.396-1.59,1.972-2.657,3.193-2.657c0.314,0,0.591,0.067,0.822,0.203c2.786,1.812,1.77,9.415,1.725,9.736L50.79,38.842z
				 M45.62,38.289h4.684c0.149-1.3,0.735-7.502-1.496-8.952c-0.134-0.078-0.315-0.12-0.531-0.12c-0.993,0-2.328,0.918-2.656,2.237
				c-0.34,1.362-0.152,4.344-0.052,5.945C45.592,37.755,45.609,38.061,45.62,38.289z"/>
		</g>
		<g>
			<path fill="#DE8080" d="M44.182,37.438c-0.475,0.59-1.254,0.604-1.745,0.034l0,0c-0.489-0.57-0.501-1.51-0.027-2.1l1.848-2.297
				l1.848-2.298c0.473-0.589,1.254-0.604,1.743-0.034l0,0c0.49,0.571,0.502,1.51,0.028,2.1l-1.848,2.298L44.182,37.438z"/>
			<path fill="#5B0D0D" d="M43.295,38.168c-0.403,0-0.783-0.183-1.068-0.515c-0.58-0.677-0.596-1.754-0.033-2.453l3.695-4.596
				c0.283-0.353,0.685-0.556,1.102-0.556c0.404,0,0.783,0.184,1.068,0.516c0.58,0.677,0.595,1.755,0.033,2.453l-3.694,4.595
				C44.113,37.966,43.712,38.168,43.295,38.168z M46.99,30.603c-0.252,0-0.49,0.124-0.67,0.349l-3.696,4.595
				c-0.394,0.49-0.383,1.273,0.023,1.747c0.364,0.425,0.965,0.412,1.319-0.027l3.693-4.596c0.394-0.489,0.383-1.271-0.022-1.745
				C47.46,30.718,47.23,30.603,46.99,30.603z"/>
		</g>
		<g>
			<path fill="#D8414C" d="M44.064,32.623l2.026-2.537c0.636-0.792,1.687-0.813,2.344-0.046l0,0c0.658,0.767,0.675,2.03,0.038,2.822
				L46.446,35.4L44.064,32.623z"/>
			<path fill="#5B0D0D" d="M46.454,35.834l-2.749-3.204l2.169-2.717c0.364-0.452,0.877-0.712,1.407-0.712
				c0.515,0,1,0.234,1.363,0.659c0.74,0.86,0.76,2.285,0.043,3.175L46.454,35.834z M44.424,32.617l2.016,2.35l1.816-2.277
				c0.558-0.692,0.543-1.8-0.031-2.469c-0.258-0.301-0.592-0.466-0.943-0.466c-0.367,0-0.714,0.179-0.975,0.504L44.424,32.617z"/>
		</g>
		<g>
			<path fill="#E58890" d="M51.467,26.16c0,1.742-1.172,3.154-2.62,3.154l0,0c-1.446,0-2.62-1.412-2.62-3.154v-1.49
				c0-1.742,1.174-3.154,2.62-3.154l0,0c1.448,0,2.62,1.412,2.62,3.154V26.16z"/>
			<path fill="#5B0D0D" d="M48.847,29.592c-1.597,0-2.897-1.54-2.897-3.432v-1.49c0-1.892,1.301-3.432,2.897-3.432
				s2.897,1.54,2.897,3.432v1.49C51.744,28.052,50.443,29.592,48.847,29.592z M48.847,21.792c-1.292,0-2.343,1.291-2.343,2.878v1.49
				c0,1.587,1.051,2.878,2.343,2.878s2.344-1.291,2.344-2.878v-1.49C51.19,23.083,50.139,21.792,48.847,21.792z"/>
		</g>
		<g>
			<path fill="#AC1E23" d="M47.502,25.24c0,0,2.562-0.818,4.201-2.389c0.064-0.719-1.539-3.565-4.066-2.977
				s-3.047,2.355-3.047,3.009c-0.256,0.31-1.295,3.992,2.167,5.138C47.093,26.844,47.502,25.24,47.502,25.24z"/>
			<path fill="#5B0D0D" d="M46.944,28.375l-0.274-0.091c-1.318-0.437-2.197-1.3-2.539-2.495c-0.354-1.235-0.055-2.554,0.185-2.988
				c0.042-0.898,0.759-2.613,3.259-3.195c0.247-0.058,0.496-0.087,0.74-0.087c1.212,0,2.099,0.69,2.628,1.27
				c0.624,0.683,1.08,1.601,1.036,2.088l-0.009,0.104l-0.075,0.072c-1.459,1.397-3.584,2.201-4.162,2.402
				c-0.109,0.424-0.436,1.682-0.709,2.643L46.944,28.375z M48.314,20.071c-0.201,0-0.408,0.025-0.615,0.073
				c-2.801,0.651-2.832,2.719-2.832,2.739v0.1l-0.064,0.077c-0.098,0.142-0.518,1.46-0.098,2.713
				c0.292,0.872,0.92,1.505,1.867,1.886c0.312-1.12,0.656-2.472,0.66-2.487l0.038-0.148l0.146-0.047
				c0.025-0.008,2.432-0.788,4.008-2.242c-0.042-0.296-0.326-0.957-0.89-1.572C50.08,20.665,49.324,20.071,48.314,20.071z"/>
		</g>
	</g>
	<g>
		<g>
			<path fill="#E58890" d="M15.252,22.435c0.654,0.547,0.797,1.569,0.32,2.283c-0.479,0.714-1.395,0.849-2.05,0.301
				c-0.654-0.549-0.798-1.57-0.32-2.284C13.68,22.021,14.598,21.887,15.252,22.435"/>
			<path fill="#5B0D0D" d="M14.422,25.633c-0.391,0-0.764-0.14-1.077-0.402c-0.759-0.635-0.926-1.824-0.372-2.65
				c0.322-0.482,0.826-0.76,1.38-0.76c0.392,0,0.763,0.139,1.077,0.401c0.758,0.635,0.925,1.823,0.373,2.65
				C15.479,25.355,14.977,25.633,14.422,25.633z M14.353,22.374c-0.366,0-0.702,0.188-0.921,0.514
				c-0.4,0.599-0.28,1.459,0.269,1.918c0.213,0.179,0.462,0.273,0.722,0.273c0.366,0,0.702-0.188,0.921-0.515
				c0.399-0.6,0.279-1.459-0.269-1.918C14.861,22.468,14.611,22.374,14.353,22.374z"/>
		</g>
		<g>
			<polygon fill="#D8414C" points="10.502,18.458 8.772,21.041 13.522,25.018 15.252,22.435 			"/>
			<path fill="#5B0D0D" d="M13.581,25.428l-5.177-4.334l2.039-3.046l5.176,4.334L13.581,25.428z M9.141,20.988l4.322,3.619
				l1.421-2.121l-4.323-3.618L9.141,20.988z"/>
		</g>
		<g>
			<path fill="#AC1E23" d="M7.888,29.039l-2.69-1.091l-3.68,18.319c-0.336,0.93,0.044,1.979,0.851,2.346
				c0.806,0.366,1.731-0.092,2.067-1.021l6.143-17.46L7.888,29.039z"/>
			<path fill="#5B0D0D" d="M2.944,49.017L2.944,49.017c-0.237,0-0.47-0.052-0.69-0.151c-0.928-0.421-1.374-1.615-1.003-2.672
				l3.741-18.628l5.935,2.409l-0.089,0.249l-6.141,17.46C4.404,48.493,3.717,49.017,2.944,49.017z M5.403,28.33L1.778,46.361
				c-0.288,0.797,0.028,1.693,0.704,2c0.148,0.067,0.305,0.102,0.462,0.102c0.536,0,1.02-0.379,1.231-0.965l6.053-17.209
				L5.403,28.33z"/>
		</g>
		<g>
			<path fill="#AC1E23" d="M13.35,46.481L11,28.608v-2.602H5.23v2.916c0,0.327,0.048,0.641,0.134,0.935l0,0
				c0.046,0.154,0.101,0.302,0.167,0.443l4.826,17.34c0.278,0.947,1.176,1.456,2.002,1.135
				C13.186,48.456,13.629,47.428,13.35,46.481"/>
			<path fill="#5B0D0D" d="M11.854,49.148L11.854,49.148c-0.803,0-1.51-0.574-1.762-1.43l-4.82-17.322
				c-0.063-0.138-0.119-0.284-0.164-0.437l-0.009-0.024c-0.097-0.329-0.146-0.67-0.146-1.013V25.73h6.324v2.878l2.345,17.816
				c0.306,1.074-0.213,2.241-1.163,2.609C12.264,49.11,12.059,49.148,11.854,49.148z M5.625,29.765l0.005,0.015
				c0.042,0.143,0.093,0.277,0.152,0.403l0.016,0.043l4.825,17.341c0.182,0.613,0.676,1.029,1.23,1.029l0,0
				c0.137,0,0.273-0.026,0.405-0.077c0.694-0.27,1.065-1.147,0.825-1.959l-0.008-0.042l-2.35-17.874l-0.003-2.359H5.507v2.639
				C5.507,29.208,5.547,29.49,5.625,29.765z"/>
		</g>
		<g>
			<path fill="#D8414C" d="M8.268,10.166h-0.07c-1.893,0-3.427,1.759-3.427,3.93v11.974h6.925V14.096
				C11.695,11.925,10.16,10.166,8.268,10.166"/>
			<path fill="#5B0D0D" d="M11.972,26.347H4.493V14.096c0-2.319,1.662-4.206,3.704-4.206h0.07c2.042,0,3.704,1.887,3.704,4.206
				V26.347z M5.047,25.793h6.371V14.096c0-2.014-1.414-3.653-3.15-3.653h-0.07c-1.736,0-3.15,1.64-3.15,3.653V25.793z"/>
		</g>
		<g>
			<path fill="#E58890" d="M8.261,10.667H8.204c-1.534,0-2.778-1.427-2.778-3.185V5.719c0-1.758,1.244-3.185,2.778-3.185h0.057
				c1.534,0,2.778,1.427,2.778,3.185v1.764C11.039,9.24,9.795,10.667,8.261,10.667"/>
			<path fill="#5B0D0D" d="M8.261,10.943H8.204c-1.685,0-3.055-1.553-3.055-3.461V5.719c0-1.908,1.37-3.462,3.055-3.462h0.057
				c1.685,0,3.055,1.554,3.055,3.462v1.764C11.315,9.391,9.945,10.943,8.261,10.943z M8.204,2.811c-1.379,0-2.502,1.305-2.502,2.908
				v1.764c0,1.603,1.123,2.907,2.502,2.907h0.057c1.379,0,2.501-1.305,2.501-2.907V5.719c0-1.604-1.122-2.908-2.501-2.908H8.204z"/>
		</g>
		<g>
			<polygon fill="#AC1E23" points="10.504,11.726 6.232,10.89 6.816,10.049 9.922,10.049 			"/>
			<path fill="#5B0D0D" d="M10.923,12.09l-5.159-1.01l0.907-1.308h3.446L10.923,12.09z M6.701,10.699l3.383,0.662l-0.359-1.035H6.96
				L6.701,10.699z"/>
		</g>
		<g>
			<path fill="#AC1E23" d="M7.904,5.347c0,0,2.059-0.083,2.807-0.459s1.275-0.836,0.328-3.134c-0.984,2.173-5.613-1.42-5.613,1.965
				c-0.655,0.333-0.734,3.353,0,4.637C6.046,8.397,7.977,8.709,7.904,5.347L7.904,5.347z"/>
			<path fill="#5B0D0D" d="M5.904,8.658L5.904,8.658c-0.156,0-0.296-0.011-0.41-0.02L5.259,8.621L5.186,8.493
				C4.573,7.424,4.483,5.31,4.812,4.206c0.087-0.29,0.199-0.498,0.339-0.63c0.043-1.124,0.602-1.671,1.706-1.671
				c0.439,0,0.932,0.083,1.408,0.162C8.73,2.146,9.212,2.227,9.625,2.227c0.619,0,0.979-0.181,1.162-0.587l0.264-0.583l0.244,0.592
				c0.93,2.256,0.536,2.986-0.46,3.486c-0.632,0.317-2.056,0.438-2.652,0.475C8.17,6.747,7.916,7.577,7.423,8.082
				C7.043,8.47,6.547,8.658,5.904,8.658z M5.6,8.092c0.089,0.006,0.193,0.013,0.305,0.013l0,0c0.484,0,0.853-0.134,1.122-0.409
				c0.423-0.433,0.626-1.221,0.602-2.342L7.622,5.081L7.893,5.07c0.557-0.022,2.125-0.144,2.694-0.43
				c0.528-0.266,1.03-0.518,0.382-2.306C10.66,2.634,10.216,2.78,9.625,2.78c-0.46,0-0.964-0.084-1.451-0.167
				C7.698,2.533,7.25,2.459,6.857,2.459c-0.693,0-1.155,0.213-1.155,1.26v0.17L5.551,3.965C5.547,3.967,5.445,4.022,5.344,4.364
				C5.065,5.294,5.137,7.135,5.6,8.092z"/>
		</g>
		<g>
			<g>
				<path fill="#E58890" d="M3.152,26.243c-0.191,1.019-0.98,1.644-1.764,1.395c-0.781-0.248-1.262-1.275-1.07-2.295
					c0.19-1.019,0.979-1.644,1.762-1.396C2.863,24.196,3.342,25.224,3.152,26.243"/>
				<path fill="#5B0D0D" d="M1.736,27.969c-0.145,0-0.289-0.021-0.431-0.066c-0.91-0.29-1.476-1.46-1.26-2.61
					c0.185-0.987,0.879-1.676,1.688-1.676c0.146,0,0.29,0.022,0.431,0.067c0.91,0.29,1.476,1.46,1.26,2.609
					C3.239,27.28,2.545,27.969,1.736,27.969z M1.733,24.17c-0.538,0-1.008,0.503-1.144,1.224c-0.162,0.87,0.242,1.777,0.883,1.981
					c0.623,0.198,1.25-0.346,1.408-1.184c0.162-0.869-0.243-1.775-0.884-1.98C1.91,24.184,1.821,24.17,1.733,24.17z"/>
			</g>
			<g>
				<g>
					<path fill="#D8414C" d="M5.109,13.244l-3.096,3.914l0.002,0.001c-0.146,0.219-0.256,0.485-0.312,0.786l-1.385,7.397l2.834,0.9
						l1.302-6.956l2.681-4.066L5.109,13.244z"/>
				</g>
				<g>
					<path fill="#5B0D0D" d="M6.816,15.24l-2.604,3.949l-1.26,6.723l-2.342-0.744l1.344-7.176c0.048-0.255,0.143-0.494,0.273-0.691
						l2.881-4.057l-0.038-0.831L1.805,17.01l-0.151,0.216l0.02,0.014c-0.102,0.202-0.178,0.427-0.221,0.658l-1.427,7.62l3.324,1.057
						l1.348-7.188l2.756-4.185L6.816,15.24z"/>
				</g>
			</g>
		</g>
	</g>
	<g>
		<g>
			<path fill="#E58890" d="M35.541,21.347l-4.171-4.523l-1.528-4.9c-0.282-0.908-1.154-1.381-1.947-1.057
				c-0.791,0.324-1.204,1.324-0.921,2.232l1.649,5.293h0.002c0.078,0.251,0.205,0.486,0.386,0.682l4.437,4.812
				c0.61,0.661,1.575,0.631,2.153-0.069C36.179,23.114,36.152,22.01,35.541,21.347"/>
			<path fill="#5B0D0D" d="M34.494,24.639L34.494,24.639c-0.47,0-0.914-0.202-1.25-0.567l-4.437-4.811
				c-0.158-0.171-0.284-0.37-0.377-0.592h-0.009l-0.062-0.195l-1.65-5.294c-0.324-1.039,0.16-2.192,1.082-2.569
				c0.199-0.082,0.406-0.123,0.617-0.123c0.764,0,1.446,0.544,1.697,1.354l1.51,4.84l4.13,4.479c0.699,0.76,0.731,2.03,0.069,2.832
				C35.475,24.402,34.994,24.639,34.494,24.639z M28.827,18.115L28.827,18.115l0.062,0.194c0.069,0.224,0.18,0.417,0.326,0.575
				l4.437,4.812c0.48,0.522,1.28,0.495,1.735-0.057c0.492-0.598,0.471-1.541-0.049-2.105l-4.214-4.568l-1.547-4.961
				c-0.179-0.577-0.649-0.964-1.169-0.964c-0.139,0-0.275,0.027-0.408,0.082c-0.661,0.271-1.004,1.119-0.762,1.893L28.827,18.115z"
				/>
		</g>
		<g>
			<path fill="#E58890" d="M26.4,37.323l-1.922-0.702l-2.084,10.378c-0.209,0.756,0.154,1.563,0.812,1.805
				c0.66,0.24,1.365-0.177,1.575-0.933l3.541-9.845L26.4,37.323z"/>
			<path fill="#5B0D0D" d="M23.588,49.148L23.588,49.148c-0.16,0-0.321-0.028-0.476-0.085c-0.79-0.29-1.231-1.249-0.984-2.139
				l2.143-10.674l4.405,1.61l-3.634,10.104C24.848,48.665,24.262,49.148,23.588,49.148z M24.687,36.991l-2.021,10.062
				c-0.176,0.639,0.111,1.299,0.637,1.491c0.501,0.182,1.05-0.161,1.213-0.747l3.454-9.605L24.687,36.991z"/>
		</g>
		<g>
			<path fill="#E58890" d="M35.158,46.918l-2.241-10.335l-1.911,0.74l-1.91,0.74l3.689,9.774c0.221,0.752,0.932,1.154,1.586,0.9
				C35.027,48.485,35.38,47.669,35.158,46.918"/>
			<path fill="#5B0D0D" d="M33.971,49.091L33.971,49.091c-0.662,0-1.245-0.472-1.451-1.175l-3.78-10.012l4.38-1.696l2.309,10.651
				c0.257,0.865-0.17,1.833-0.957,2.138C34.31,49.06,34.141,49.091,33.971,49.091z M29.45,38.223l3.594,9.518
				c0.143,0.485,0.513,0.798,0.927,0.798l0,0c0.102,0,0.203-0.02,0.301-0.058c0.524-0.203,0.803-0.869,0.621-1.483l-2.178-10.039
				L29.45,38.223z"/>
		</g>
		<g>
			<polygon fill="#AC1E23" points="36.252,38.713 21.85,38.713 26.425,24.717 31.454,24.717 			"/>
			<path fill="#5B0D0D" d="M36.639,38.989h-15.17l4.756-14.549h5.427L36.639,38.989z M22.232,38.436h13.632l-4.608-13.441h-4.631
				L22.232,38.436z"/>
		</g>
		<g>
			<path fill="#E58890" d="M29.479,1.182h-0.057c-1.535,0-2.778,1.426-2.778,3.186v1.762c0,1.215,0.593,2.27,1.466,2.808v2.599
				c0,0.725,0.513,1.312,1.145,1.312s1.145-0.588,1.145-1.312V9.132c1.082-0.435,1.857-1.613,1.857-3.003V4.367
				C32.256,2.607,31.013,1.182,29.479,1.182"/>
			<path fill="#5B0D0D" d="M29.254,13.124c-0.784,0-1.422-0.713-1.422-1.589V9.086c-0.908-0.626-1.465-1.744-1.465-2.957V4.367
				c0-1.909,1.371-3.463,3.055-3.463h0.057c1.685,0,3.055,1.554,3.055,3.463v1.762c0,1.391-0.739,2.644-1.859,3.184v2.223
				C30.674,12.411,30.037,13.124,29.254,13.124z M29.422,1.458c-1.379,0-2.502,1.305-2.502,2.909v1.762
				c0,1.079,0.512,2.065,1.334,2.572l0.132,0.081v2.753c0,0.57,0.39,1.035,0.868,1.035s0.867-0.465,0.867-1.035v-2.59l0.174-0.07
				c1.008-0.405,1.686-1.509,1.686-2.746V4.367c0-1.604-1.123-2.909-2.502-2.909H29.422z"/>
		</g>
		<g>
			<path fill="#AC1E23" d="M29.122,3.995c0.188,2.016,0.772,5.983-0.414,6.378c-1.136,0.377-1.593,3.344-2.021,3.314
				c-1.404-4.153-1.48-10.528-0.044-11.322c0-3.385,6.327-2.409,6.208,1.17C32.82,4.471,29.122,3.995,29.122,3.995L29.122,3.995z"/>
			<path fill="#5B0D0D" d="M26.684,13.965l-0.2-0.014l-0.06-0.175c-1.342-3.974-1.582-10.349-0.053-11.561
				C26.442,0.864,27.492,0,29.087,0c1.181,0,2.39,0.493,3.155,1.284c0.608,0.628,0.914,1.41,0.886,2.26
				c-0.024,0.761-1.228,0.849-2.13,0.849c-0.605,0-1.205-0.049-1.567-0.085c0.016,0.147,0.031,0.301,0.049,0.461
				c0.312,2.982,0.477,5.481-0.685,5.867c-0.557,0.186-0.993,1.342-1.281,2.107c-0.297,0.787-0.46,1.221-0.82,1.222H26.684z
				 M29.087,0.554c-1.048,0-2.167,0.476-2.167,1.812v0.163l-0.143,0.079c-1.133,0.626-1.281,6.201,0.009,10.479
				c0.07-0.168,0.146-0.369,0.21-0.538c0.363-0.966,0.816-2.169,1.625-2.438c0.833-0.276,0.478-3.658,0.308-5.284
				c-0.03-0.29-0.06-0.562-0.081-0.806l-0.033-0.345l0.343,0.044c0.01,0.002,0.935,0.119,1.841,0.119
				c1.278,0,1.574-0.232,1.576-0.312c0.024-0.697-0.229-1.34-0.729-1.857C31.18,0.981,30.122,0.554,29.087,0.554z"/>
		</g>
		<g>
			<path fill="#D8414C" d="M28.979,10.373c-1.893,0-2.844,2.613-2.844,4.784l0.29,9.56h5.03l0.713-8.377
				c0,0,1.158-0.396,1.158-2.012S30.871,10.373,28.979,10.373"/>
			<path fill="#5B0D0D" d="M31.709,24.994h-5.553l-0.299-9.828c0-2.462,1.094-5.069,3.121-5.069c1.988,0,4.624,2.412,4.624,4.231
				c0,1.418-0.808,2.005-1.173,2.195L31.709,24.994z M26.693,24.44h4.508l0.707-8.304l0.171-0.059c0.037-0.014,0.97-0.365,0.97-1.75
				c0-1.397-2.274-3.678-4.07-3.678c-1.771,0-2.568,2.636-2.568,4.507L26.693,24.44z"/>
		</g>
		<g>
			<path fill="#E58890" d="M25.512,15.079c-0.817-0.228-1.642,0.346-1.841,1.284l-1.448,6.801c-0.199,0.937,0.303,1.881,1.12,2.109
				c0.817,0.229,1.642-0.345,1.841-1.283l1.446-6.801C26.83,16.253,26.33,15.308,25.512,15.079"/>
			<path fill="#5B0D0D" d="M23.707,25.601c-0.002,0-0.002,0-0.002,0c-0.146,0-0.293-0.021-0.437-0.062
				c-0.954-0.266-1.545-1.358-1.315-2.433l1.447-6.802c0.194-0.914,0.914-1.552,1.75-1.552c0.146,0,0.293,0.021,0.436,0.06
				c0.955,0.268,1.544,1.359,1.314,2.436l-1.446,6.8C25.26,24.962,24.541,25.601,23.707,25.601z M25.15,15.307
				c-0.572,0-1.069,0.457-1.209,1.113l-1.447,6.801c-0.169,0.796,0.244,1.596,0.924,1.786c0.66,0.185,1.332-0.308,1.495-1.074
				l1.446-6.801c0.17-0.795-0.244-1.597-0.922-1.786C25.343,15.319,25.246,15.307,25.15,15.307z"/>
		</g>
		<g>
			<g>
				<polygon fill="#D8414C" points="27.288,11.693 24.051,15.592 26.362,17.866 29.557,13.601 				"/>
			</g>
			<g>
				<polygon fill="#5B0D0D" points="29.213,13.634 26.332,17.479 24.39,15.566 27.288,11.693 27.181,10.995 23.712,15.617 
					26.392,18.254 29.903,13.563 				"/>
			</g>
		</g>
	</g>
</g>
</svg>
