<?xml version="1.0" encoding="utf-8"?>
<!-- Generator: Adobe Illustrator 15.0.0, SVG Export Plug-In . SVG Version: 6.00 Build 0)  -->
<!DOCTYPE svg PUBLIC "-//W3C//DTD SVG 1.1//EN" "http://www.w3.org/Graphics/SVG/1.1/DTD/svg11.dtd">
<svg version="1.1" id="Layer_1" xmlns="http://www.w3.org/2000/svg" xmlns:xlink="http://www.w3.org/1999/xlink" x="0px" y="0px"
	 width="17.542px" height="44.5px" viewBox="0 0 17.542 44.5" enable-background="new 0 0 17.542 44.5" xml:space="preserve">
<g>
	<path fill="#1C5F9F" d="M13.158,44.5H4.384C1.964,44.5,0,42.537,0,40.116V6.786h17.542v33.329
		C17.542,42.537,15.579,44.5,13.158,44.5"/>
	<polygon fill="#95AFCF" points="17.542,6.787 0,6.787 2.832,0 14.71,0 	"/>
	<path fill="#D8D8D7" d="M15.536,16.859c0,3.733-3.027,6.768-6.765,6.768c-3.741,0-6.766-3.034-6.766-6.768
		c0-3.735,3.024-6.768,6.766-6.768C12.509,10.092,15.536,13.124,15.536,16.859"/>
	<path fill="#E33A39" d="M13.867,16.859c0,2.811-2.283,5.095-5.096,5.095c-2.813,0-5.095-2.284-5.095-5.095
		c0-2.814,2.281-5.094,5.095-5.094C11.584,11.766,13.867,14.045,13.867,16.859"/>
	<path fill="#D8D8D7" d="M15.536,33.717c0,3.733-3.027,6.765-6.765,6.765c-3.741,0-6.766-3.031-6.766-6.765
		c0-3.739,3.024-6.771,6.766-6.771C12.509,26.945,15.536,29.978,15.536,33.717"/>
	<path fill="#95AFCF" d="M13.867,33.717c0,2.812-2.283,5.093-5.096,5.093c-2.813,0-5.095-2.28-5.095-5.093
		c0-2.815,2.281-5.096,5.095-5.096C11.584,28.621,13.867,30.901,13.867,33.717"/>
	<path fill="#FFFFFF" d="M8.532,13.125c-0.236,0-0.43,0.193-0.43,0.432v2.728c0,0.079-0.064,0.145-0.144,0.145
		s-0.143-0.065-0.143-0.145V14.13c0-0.237-0.194-0.43-0.433-0.43s-0.43,0.192-0.43,0.43v3.592l-0.583-0.8
		c-0.173-0.263-0.509-0.35-0.755-0.196c-0.246,0.155-0.307,0.488-0.135,0.754c0,0,0.938,1.419,1.337,2.028
		c0.401,0.607,1.05,1.088,2.264,1.088c2.005,0,2.181-1.551,2.181-2.013v-3.879c0-0.238-0.193-0.431-0.43-0.431
		c-0.238,0-0.432,0.192-0.432,0.431v1.868c0,0.081-0.065,0.143-0.143,0.143c-0.081,0-0.145-0.062-0.145-0.143v-2.73
		c0-0.238-0.193-0.43-0.432-0.43s-0.431,0.191-0.431,0.43v2.442c0,0.079-0.064,0.145-0.144,0.145s-0.145-0.065-0.145-0.145v-2.728
		C8.964,13.318,8.771,13.125,8.532,13.125"/>
</g>
</svg>
