<?xml version="1.0" encoding="utf-8"?>
<!-- Generator: Adobe Illustrator 15.0.0, SVG Export Plug-In . SVG Version: 6.00 Build 0)  -->
<!DOCTYPE svg PUBLIC "-//W3C//DTD SVG 1.1//EN" "http://www.w3.org/Graphics/SVG/1.1/DTD/svg11.dtd">
<svg version="1.1" id="Layer_1" xmlns="http://www.w3.org/2000/svg" xmlns:xlink="http://www.w3.org/1999/xlink" x="0px" y="0px"
	 width="17.542px" height="44.5px" viewBox="0 0 17.542 44.5" enable-background="new 0 0 17.542 44.5" xml:space="preserve">
<g>
	<path fill="#1C5F9F" d="M13.753,44.5H4.978c-2.42,0-4.383-1.963-4.383-4.384V6.786h17.542v33.329
		C18.137,42.537,16.173,44.5,13.753,44.5"/>
	<polygon fill="#95AFCF" points="18.137,6.787 0.595,6.787 3.426,0 15.305,0 	"/>
	<path fill="#D8D8D7" d="M16.131,16.859c0,3.733-3.027,6.768-6.766,6.768c-3.74,0-6.766-3.034-6.766-6.768
		c0-3.735,3.025-6.768,6.766-6.768C13.104,10.092,16.131,13.124,16.131,16.859"/>
	<path fill="#D8D8D7" d="M16.131,33.717c0,3.733-3.027,6.765-6.766,6.765c-3.74,0-6.766-3.031-6.766-6.765
		c0-3.739,3.025-6.771,6.766-6.771C13.104,26.945,16.131,29.978,16.131,33.717"/>
	<path fill="#95AFCF" d="M14.461,16.862c0,2.812-2.282,5.093-5.096,5.093s-5.094-2.28-5.094-5.093c0-2.816,2.28-5.097,5.094-5.097
		S14.461,14.046,14.461,16.862"/>
	<path fill="#3EC12B" d="M14.461,33.887c0,2.811-2.282,5.095-5.096,5.095s-5.094-2.284-5.094-5.095c0-2.815,2.28-5.094,5.094-5.094
		S14.461,31.071,14.461,33.887"/>
	<g id="ky5Fit.tif_2_">
		<g>
			<path fill-rule="evenodd" clip-rule="evenodd" fill="#FFFFFF" d="M9.533,29.449c0.092,0,0.185,0,0.277,0
				c0.36,0.127,0.553,0.344,0.582,0.61c0.121,1.06-1.571,1.071-1.415-0.027C9.014,29.773,9.205,29.598,9.533,29.449z"/>
			<path fill-rule="evenodd" clip-rule="evenodd" fill="#FFFFFF" d="M10.948,37.775c-0.093,0-0.186,0-0.277,0
				c-0.554-0.293-0.349-1.332-0.61-1.915c-0.146-0.325-0.562-0.671-0.777-0.889c-0.089-0.087-0.21-0.244-0.277-0.193
				c-0.082,0.938-0.43,1.464-0.834,2.109c-0.19,0.306-0.386,0.872-0.805,0.86c-0.201-0.006-0.456-0.172-0.472-0.417
				c-0.019-0.305,0.317-0.69,0.472-0.943c0.188-0.307,0.447-0.609,0.555-0.86c0.211-0.487,0.256-1.083,0.362-1.582
				c0.12-0.561,0.21-1.09,0.333-1.609c-0.211,0.147-0.396,0.144-0.527,0.389c-0.229,0.426,0.006,1.308-0.445,1.388
				c-0.617,0.108-0.303-0.656-0.249-0.944c0.069-0.376,0.064-0.63,0.167-0.832c0.122-0.241,0.55-0.512,0.832-0.722
				c0.303-0.224,0.654-0.567,0.971-0.61c0.931-0.124,0.867,1.107,1.306,1.637c0.109,0.133,0.417,0.318,0.61,0.444
				c0.207,0.136,0.559,0.199,0.555,0.527c-0.006,0.604-0.689,0.09-0.916-0.056c-0.423-0.272-0.771-0.5-0.943-0.971
				c-0.076,0.45-0.193,0.861-0.277,1.304c0.243,0.503,1.008,0.902,1.277,1.582c0.098,0.251,0.141,0.637,0.193,0.972
				C11.25,36.946,11.498,37.707,10.948,37.775z"/>
		</g>
	</g>
</g>
</svg>
